<svg width="50" height="50" viewBox="0 0 50 50" fill="none" xmlns="http://www.w3.org/2000/svg">
<path d="M49.9167 29.8273C49.8367 30.7436 49.6843 31.652 49.4606 32.5442C49.1064 33.8122 48.5156 35.0019 47.7194 36.0506C47.6607 36.1222 47.6066 36.1975 47.5576 36.2762C46.817 37.6983 45.7625 38.9047 44.8257 40.1994C44.2589 40.8692 43.6424 41.4954 42.9816 42.0728C41.6034 43.4704 40.0389 44.6425 38.5185 45.8931C37.6101 46.6335 36.5926 47.2291 35.5021 47.6585C34.2633 48.1476 32.9784 48.5107 31.6668 48.7423C30.7496 48.914 29.8129 48.9924 28.9104 49.2327C28.4722 49.4305 28.0108 49.5722 27.5371 49.6545C26.2718 49.6839 25.0211 49.9193 23.7459 49.8801C23.3458 49.8687 22.9454 49.8917 22.5492 49.9487C21.1171 50.1351 19.7291 49.7673 18.3362 49.5809C17.3506 49.3827 16.4242 48.9598 15.6288 48.3451C14.7076 47.7064 13.7211 47.1672 12.6861 46.7366C11.4067 46.136 10.2234 45.3494 9.17445 44.4022C7.42515 42.9425 5.82497 41.3129 4.3974 39.5374C2.80843 37.7387 1.68362 35.5785 1.12112 33.2454C0.890609 32.1616 0.483546 31.1171 0.341314 30.0038C0.288256 29.4382 0.276778 28.8694 0.306978 28.3021C0.336406 26.7181 -0.0363392 25.1488 0.0028974 23.5403C0.0715614 20.3624 -0.330637 17.062 1.44972 14.2225C1.90094 13.5163 2.28352 12.7513 2.67098 12.0304C3.14885 11.0612 3.81589 10.1974 4.63281 9.49006C5.54887 8.61351 6.5626 7.84508 7.65405 7.19986C7.79422 7.12392 7.91897 7.02247 8.02189 6.90072C9.13472 5.59632 10.528 4.56024 12.0976 3.86997C13.7161 3.16378 15.1973 2.2075 16.8403 1.55526C18.5814 0.863781 20.3471 0.201738 22.2353 0.123273C23.7067 0.0644236 25.178 -0.121931 26.6788 0.123273C27.596 0.265491 28.5034 0.51069 29.4107 0.731374C30.7678 1.00362 32.0858 1.44344 33.3344 2.04076C35.1245 2.99215 36.9736 3.82095 38.6705 4.93909C39.5141 5.49815 40.343 6.07681 41.1228 6.69473C41.5283 7.04122 41.8965 7.4291 42.2214 7.85208C42.9866 8.75443 43.7468 9.6666 44.4923 10.5837C44.9435 11.1427 45.1397 11.8587 45.6007 12.4227C45.9097 12.8052 46.1598 13.2319 46.4786 13.6046C47.2633 14.5217 47.4595 15.6741 47.8273 16.7677C48.0628 17.4739 48.3472 18.1556 48.6415 18.8372C49.009 19.617 49.2048 20.4666 49.2154 21.3285C49.1918 22.2154 49.2892 23.1014 49.5047 23.962C49.969 25.8803 50.1082 27.8629 49.9167 29.8273V29.8273Z" fill="#FFD561"/>
<path d="M24.2516 25.1014C25.5227 24.6182 26.8364 24.2554 28.1753 24.0176C28.3066 24.5364 28.3578 25.0723 28.3273 25.6065C28.3294 25.7243 28.2933 25.8396 28.2243 25.9351C28.1481 26.0011 28.0544 26.0436 27.9546 26.0577C25.6085 26.6511 23.2033 26.9801 20.7841 27.0386C20.7183 27.0504 20.6504 27.0382 20.5928 27.0042C20.4947 26.9356 20.4997 26.7934 20.5193 26.6757C20.6713 25.8027 20.946 23.6793 21.8043 23.1398C22.9814 22.3846 24.286 24.0471 24.2516 25.1014Z" fill="#D6674C"/>
<path d="M12.5913 11.082C13.4447 11.1408 13.4398 11.1605 13.0818 11.9451C12.5394 13.1336 11.8702 14.2599 11.0856 15.3044C10.7937 15.7133 10.5235 16.1372 10.2764 16.5746C10.2404 16.6586 10.1776 16.7283 10.0976 16.7727C10.0177 16.8171 9.92528 16.8337 9.83493 16.8198C9.5848 16.7903 9.34452 16.7854 9.08458 16.756C8.64316 16.707 8.59411 16.5893 8.83444 16.2068C9.29056 15.5104 9.73196 14.8042 10.2273 14.1372C10.8457 13.2398 11.3406 12.2633 11.6987 11.234C11.7149 11.1708 11.7539 11.1158 11.8083 11.0796C11.8626 11.0434 11.9283 11.0286 11.993 11.0379C12.2431 11.0477 12.4049 11.0673 12.5913 11.082Z" fill="#292929"/>
<path d="M39.3976 13.9213C39.3483 13.9752 39.2941 14.0245 39.2357 14.0684C38.9008 14.2484 38.5402 14.3758 38.1666 14.446C38.1078 14.4553 38.0476 14.4493 37.9918 14.4287C37.936 14.4081 37.8864 14.3736 37.8478 14.3284C37.1954 13.7693 36.4549 13.3475 35.7584 12.8571C35.1053 12.345 34.483 11.7948 33.8947 11.2094C33.7053 11.0272 33.5267 10.8339 33.3601 10.6307C33.1246 10.3658 33.1541 10.2089 33.4484 10.0324C33.7569 9.86966 34.0872 9.75238 34.4293 9.68417C34.5225 9.65965 34.6058 9.64985 34.6696 9.75284C35.4166 10.8329 36.3762 11.749 37.4897 12.4452C38.0899 12.8264 38.6649 13.2457 39.2112 13.7006C39.2995 13.7497 39.3878 13.7938 39.3976 13.9213Z" fill="#292929"/>
<path d="M29.6476 25.6287C29.6536 25.3253 29.6765 25.0224 29.7163 24.7215C29.8022 24.0135 29.7874 23.2969 29.6722 22.5931C29.5694 22.0777 29.346 21.5939 29.0204 21.1814C28.6947 20.7689 28.276 20.4393 27.7986 20.2195C27.0236 19.8865 26.1574 19.8311 25.3463 20.0626C23.4384 20.553 22.0406 21.7594 20.8684 23.2699C20.0837 24.2801 19.9709 25.4718 19.9219 26.7027C19.9219 26.9234 20.0641 26.9479 20.2309 26.9725C20.7183 27.0415 21.2121 27.053 21.7022 27.0068C23.463 26.9038 25.2286 27.0068 26.9796 26.6978C27.7085 26.5987 28.432 26.4628 29.1473 26.2908C29.3007 26.2677 29.439 26.1855 29.5325 26.0617C29.626 25.938 29.6673 25.7826 29.6476 25.6287V25.6287ZM27.7397 25.9622C27.0678 26.1535 26.3665 26.1829 25.6847 26.3349C24.4488 26.6144 23.1883 26.4183 21.9524 26.5948C21.6238 26.639 21.5257 26.5262 21.5257 26.1584C21.5257 24.1036 22.8009 22.8285 24.2134 21.6221C24.8349 21.1309 25.5368 20.7509 26.288 20.4991C26.377 20.4592 26.4759 20.4468 26.572 20.4634C26.6681 20.48 26.757 20.5248 26.8275 20.5922C27.3143 20.9376 27.6991 21.4077 27.9416 21.953C28.184 22.4983 28.2753 23.0989 28.2057 23.6916C28.2057 23.9466 28.1665 24.182 28.1468 24.4468C28.1174 24.8147 28.0782 25.1825 28.0684 25.5552C28.0732 25.6516 28.0424 25.7464 27.9818 25.8215C27.9212 25.8965 27.835 25.9467 27.7397 25.9622V25.9622Z" fill="#292929"/>
<path d="M18.0679 21.1698C18.1219 21.008 18.1611 20.8462 17.9943 20.7383C17.7279 20.5209 17.4237 20.3547 17.0968 20.2479C16.1797 20.0713 15.3802 19.5956 14.5072 19.3014C13.5754 18.9147 12.573 18.7276 11.5645 18.7521C10.796 18.7322 10.0425 18.9666 9.42116 19.4191C8.08711 20.5961 7.21408 22.0035 7.31708 23.8622C7.37103 24.843 7.48386 25.7944 8.26369 26.5251C8.40901 26.6806 8.52675 26.8597 8.61189 27.0547C8.69594 27.2008 8.7326 27.3694 8.71678 27.5371C8.70097 27.7049 8.63351 27.8636 8.52364 27.9914C7.97844 28.7135 7.35319 29.3716 6.65988 29.953C5.76131 30.5889 5.1044 31.5102 4.79612 32.5669C4.71046 32.7989 4.70244 33.0525 4.77319 33.2895C4.84394 33.5265 4.98967 33.7341 5.18851 33.8812C5.51712 34.1313 5.80159 34.4354 6.11548 34.7051C6.2285 34.7706 6.32232 34.8647 6.38753 34.9779C6.45275 35.091 6.4871 35.2194 6.4871 35.35C6.4871 35.4806 6.45275 35.6089 6.38753 35.7221C6.32232 35.8353 6.2285 35.9294 6.11548 35.9949C5.74329 36.3387 5.34659 36.655 4.92855 36.9414C4.37092 37.3112 3.86324 37.7513 3.41797 38.2508C3.72696 38.6872 4.05556 39.1139 4.39888 39.5307C5.82645 41.3063 7.42663 42.9359 9.17593 44.3956C10.2248 45.3427 11.4082 46.1294 12.6876 46.7299C12.8936 46.8133 13.0947 46.9065 13.2958 46.9996C13.5686 46.9351 13.8126 46.7824 13.9899 46.5652C14.1672 46.348 14.2681 46.0784 14.2767 45.7981C14.4051 44.9589 14.4232 44.1066 14.3306 43.2627C14.0805 41.8553 13.9334 40.4331 13.3056 39.1188C13.2497 39.0047 13.2292 38.8765 13.2467 38.7507C13.2642 38.6249 13.3188 38.5071 13.4037 38.4126C13.6783 38.0562 13.9432 37.6884 14.1982 37.3092C14.8015 36.4068 15.5469 35.5878 15.954 34.5629C16.4445 33.3271 16.7094 32.1108 15.5764 31.0369C15.4412 30.8722 15.3416 30.6813 15.2842 30.4761C15.2268 30.2709 15.2127 30.0561 15.2429 29.8452C15.2429 28.9673 15.6794 28.2464 16.062 27.5059C16.4783 26.8401 16.7584 26.0984 16.8859 25.3236C16.916 25.0734 16.8942 24.8197 16.8221 24.5782C16.5916 23.8377 16.9938 23.2443 17.3126 22.6166C17.5934 22.15 17.8456 21.6669 18.0679 21.1698Z" fill="#8CBBE8"/>
<path d="M46.4048 36.2622C46.4221 36.0963 46.402 35.9287 46.3459 35.7717C46.0618 35.0496 45.7087 34.3565 45.2914 33.7022C44.85 33.0598 44.3792 32.4566 43.9476 31.8043C43.7953 31.5658 43.6978 31.2966 43.6622 31.0159C43.6266 30.7352 43.6537 30.45 43.7415 30.1811C43.9328 29.5043 44.0849 28.8079 44.2811 28.1312C44.434 27.6555 44.515 27.1596 44.5214 26.66C44.5214 25.5516 44.3939 24.4874 43.5699 23.9676C43.4033 23.8521 43.2218 23.7597 43.0304 23.693L41.5198 23.2614C41.0294 23.1241 41.0293 23.1241 40.9411 22.413C40.912 21.4673 40.5898 20.5539 40.019 19.7991C39.3961 19.0881 38.7683 18.3671 37.9149 18.1955C37.1179 18.0208 36.3102 17.8996 35.497 17.8326C34.6583 17.7787 33.8049 17.8032 33.0447 17.2343L32.4954 17.1902C32.0049 17.146 31.7793 17.6561 31.5978 18.2004C31.5386 18.3914 31.504 18.5892 31.4948 18.7889C31.4507 19.3333 31.3968 19.8776 31.3673 20.422C31.2814 21.252 31.4785 22.0866 31.9265 22.7906C32.2441 23.2866 32.5323 23.8008 32.7897 24.3305C32.9675 24.7286 33.1949 25.1026 33.4665 25.4437C33.8908 25.9497 34.1327 26.5836 34.1531 27.2435C34.2561 28.5284 34.3052 29.7986 33.697 30.9755C33.5385 31.3052 33.4326 31.6577 33.3831 32.0201C33.2556 32.8538 33.133 33.6924 33.079 34.5359C32.9564 36.4191 33.4027 37.9344 34.5161 38.9202C35.1181 39.4747 35.586 40.1589 35.8844 40.921C36.2333 41.8056 36.249 42.7868 35.9286 43.682C35.4921 44.9375 35.2812 46.2959 34.83 47.5366C34.7818 47.6601 34.7568 47.7915 34.7564 47.924C34.9918 47.8407 35.2468 47.7622 35.4626 47.6641C36.5531 47.2347 37.5706 46.6392 38.479 45.8987C39.9847 44.6481 41.5639 43.4761 42.9421 42.0784C43.6029 41.501 44.2193 40.8748 44.7862 40.205C45.0364 39.8666 45.2767 39.5283 45.5514 39.1948C45.5906 39.1041 45.6348 39.0157 45.6838 38.93C46.1237 38.107 46.3703 37.1947 46.4048 36.2622V36.2622Z" fill="#8CBBE8"/>
<path d="M14.4452 17.1481C15.0583 16.388 16.0784 15.8044 16.976 15.9368C17.2114 15.9662 17.4664 15.9858 17.6871 15.9956C18.8936 16.0398 19.2468 16.8686 19.2762 17.8494C19.3105 18.9381 18.7857 19.811 18.1138 20.5908C18.0056 20.7086 17.8747 20.8033 17.7288 20.869C17.583 20.9348 17.4253 20.9703 17.2653 20.9733C16.5531 21.0183 15.8381 20.9622 15.1417 20.8065C13.9548 20.5564 13.636 18.7959 14.0234 17.8641C14.1258 17.6049 14.2681 17.3633 14.4452 17.1481V17.1481Z" fill="#FEFEFE"/>
<path d="M34.8501 14.8179C33.2757 14.2784 30.0289 14.3961 30.1809 16.6912C30.2315 17.0948 30.3562 17.4855 30.5488 17.8437C30.6304 18.032 30.7288 18.2126 30.843 18.3831C31.3137 18.9409 31.9641 19.3172 32.6823 19.4473C33.084 19.5682 33.5055 19.6098 33.9231 19.5699C34.4819 19.4798 35.0013 19.2256 35.4152 18.8396C35.8292 18.4536 36.119 17.9534 36.2479 17.4023C36.353 16.8761 36.2708 16.3298 36.0155 15.8578C35.7603 15.3859 35.348 15.018 34.8501 14.8179V14.8179Z" fill="#FDFDFD"/>
<path d="M14.5859 17.278C15.1058 17.0867 15.6403 16.92 16.1406 16.6944C16.7408 16.4822 17.3893 16.4464 18.0093 16.5914C18.176 16.5914 18.3084 16.6993 18.2888 16.9053C18.3055 17.1971 18.269 17.4896 18.1809 17.7684C17.9039 18.4698 17.5761 19.15 17.2 19.8036C17.1559 19.8674 17.1313 19.9507 17.0872 20.0096C16.9303 20.2155 16.9891 20.5981 16.6948 20.6618C16.2753 20.7132 15.8499 20.6882 15.4393 20.5882C15.3019 20.5882 15.2676 20.4509 15.3362 20.3136C15.4736 20.0439 15.5864 19.7595 15.7384 19.4996C16.0937 18.8175 16.4081 18.115 16.6801 17.3957C15.8022 17.6458 15.0175 18.1656 14.0709 18.0332C13.8355 17.9057 13.5167 18.0332 13.2812 17.7635C13.7328 17.6505 14.1703 17.4876 14.5859 17.278V17.278Z" fill="#292929"/>
<path d="M30.4036 16.2123C31.2717 15.8739 32.1301 15.4914 33.0129 15.2021C33.544 15.0935 34.0938 15.1205 34.6117 15.2805C34.6521 15.283 34.6901 15.3004 34.7182 15.3295C34.7464 15.3585 34.7626 15.3971 34.7638 15.4375C34.7638 15.5159 34.6853 15.5454 34.6265 15.5454C33.9545 15.5454 33.4249 15.972 32.8069 16.1485C32.5322 16.227 32.2674 16.3447 31.9339 16.4722C32.7676 17.2716 33.3121 18.2966 34.2341 18.9929C34.3666 19.1548 34.4106 19.3166 34.1262 19.3117C33.5474 19.3117 32.9393 19.3705 32.5126 18.8213C32.4334 18.8144 32.3565 18.7908 32.2871 18.7519C32.2178 18.713 32.1575 18.6597 32.1104 18.5957C31.8505 18.1641 31.414 17.8797 31.159 17.4432C30.9947 17.2035 30.802 16.9844 30.5851 16.791C30.4821 16.688 30.335 16.5899 30.3791 16.4036C30.389 16.3447 30.3987 16.2859 30.4036 16.2123Z" fill="#292A2A"/>
</svg>
