<svg width="25" height="25" viewBox="0 0 25 25" fill="none" xmlns="http://www.w3.org/2000/svg">
<path d="M24.3268 12.5715C24.3619 14.1908 24.0733 15.8008 23.4778 17.3071C22.8824 18.8134 21.9922 20.1856 20.8594 21.3432C19.7265 22.5009 18.374 23.4206 16.8809 24.0486C15.3879 24.6765 13.7845 25 12.1648 25C10.5451 25 8.94173 24.6765 7.4487 24.0486C5.95568 23.4206 4.60308 22.5009 3.47026 21.3432C2.33744 20.1856 1.44721 18.8134 0.851792 17.3071C0.256371 15.8008 -0.0322509 14.1908 0.00285847 12.5715C0.00285847 5.71159 5.44502 0.109375 12.162 0.109375C15.4273 0.150067 18.5428 1.48558 20.8239 3.82239C23.105 6.1592 24.3649 9.3061 24.3268 12.5715V12.5715Z" fill="url(#paint0_linear_181_504)"/>
<path d="M9.25167 12.4927C9.69015 12.4964 10.1238 12.4006 10.5198 12.2124C10.9159 12.0243 11.2641 11.7487 11.5383 11.4065L11.9785 10.8634L12.4186 11.4065C12.7947 11.8762 13.3073 12.2175 13.8857 12.3832C14.4641 12.5489 15.0797 12.5309 15.6474 12.3316C16.2151 12.1324 16.7069 11.7617 17.0548 11.2708C17.4027 10.78 17.5896 10.1932 17.5896 9.59151C17.5896 8.98985 17.4027 8.40304 17.0548 7.91219C16.7069 7.42133 16.2151 7.05066 15.6474 6.85139C15.0797 6.65213 14.4641 6.63411 13.8857 6.79983C13.3073 6.96556 12.7947 7.30683 12.4186 7.7765L11.9785 8.34816L11.5383 7.7765C11.2318 7.39602 10.8342 7.09918 10.3823 6.91356C9.93036 6.72794 9.43886 6.65957 8.95344 6.7148C8.46803 6.77004 8.00445 6.94708 7.60579 7.22948C7.20713 7.51187 6.88632 7.89046 6.67318 8.33007C6.46004 8.76967 6.36148 9.25602 6.38667 9.74391C6.41185 10.2318 6.55996 10.7054 6.81723 11.1207C7.0745 11.5361 7.43258 11.8796 7.8582 12.1195C8.28381 12.3593 8.76315 12.4877 9.25167 12.4927V12.4927ZM14.1736 8.43962C14.3661 8.43962 14.5542 8.49677 14.7141 8.60381C14.8741 8.71085 14.9986 8.86296 15.072 9.04087C15.1454 9.21878 15.1643 9.41447 15.1263 9.60314C15.0884 9.79181 14.9952 9.96496 14.8588 10.1006C14.7223 10.2363 14.5486 10.3284 14.3597 10.3653C14.1708 10.4021 13.9752 10.3821 13.7978 10.3076C13.6203 10.2332 13.4689 10.1077 13.3628 9.94718C13.2567 9.78661 13.2007 9.59816 13.2018 9.40572C13.2018 9.27837 13.227 9.15227 13.2759 9.03468C13.3248 8.9171 13.3965 8.81034 13.4868 8.72056C13.5771 8.63077 13.6843 8.55973 13.8022 8.51151C13.92 8.4633 14.0463 8.43887 14.1736 8.43962V8.43962ZM9.73187 8.43962C9.92432 8.43962 10.1124 8.49677 10.2724 8.60381C10.4323 8.71085 10.5569 8.86296 10.6302 9.04087C10.7036 9.21878 10.7225 9.41447 10.6846 9.60314C10.6466 9.79181 10.5535 9.96496 10.417 10.1006C10.2805 10.2363 10.1068 10.3284 9.91793 10.3653C9.72904 10.4021 9.53346 10.3821 9.35599 10.3076C9.17852 10.2332 9.02714 10.1077 8.92105 9.94718C8.81495 9.78661 8.75893 9.59816 8.76006 9.40572C8.76154 9.15094 8.86302 8.90693 9.04264 8.72623C9.22227 8.54554 9.46567 8.44261 9.72044 8.43962H9.73187Z" fill="white"/>
<path d="M11.9564 21.5456C13.8785 21.5456 15.7574 20.9757 17.3555 19.9078C18.9537 18.84 20.1993 17.3222 20.9348 15.5465C21.6703 13.7707 21.8628 11.8167 21.4878 9.9316C21.1128 8.04646 20.1873 6.31486 18.8282 4.95575C17.4691 3.59665 15.7375 2.67109 13.8523 2.29611C11.9672 1.92113 10.0132 2.11359 8.23745 2.84913C6.46169 3.58467 4.94392 4.83027 3.87608 6.42841C2.80823 8.02654 2.23828 9.90545 2.23828 11.8275C2.23828 14.4049 3.26215 16.8768 5.08466 18.6993C6.90716 20.5218 9.379 21.5456 11.9564 21.5456V21.5456ZM11.9564 18.6131C11.6109 18.6714 11.2558 18.6226 10.9389 18.473C10.622 18.3235 10.3585 18.0805 10.1839 17.7767C10.0093 17.4729 9.93192 17.1229 9.9622 16.7739C9.99248 16.4248 10.129 16.0933 10.3533 15.8242C10.5776 15.555 10.879 15.361 11.2169 15.2682C11.5548 15.1755 11.913 15.1885 12.2433 15.3055C12.5736 15.4225 12.8601 15.6378 13.0643 15.9225C13.2686 16.2073 13.3807 16.5477 13.3856 16.8981C13.406 17.1058 13.3853 17.3154 13.3244 17.5151C13.2636 17.7147 13.1639 17.9003 13.0311 18.0613C12.8983 18.2223 12.735 18.3554 12.5506 18.453C12.3661 18.5507 12.1642 18.6109 11.9564 18.6302V18.6131ZM13.0997 4.55035C13.2188 4.34955 13.3853 4.181 13.5846 4.05942C13.7839 3.93785 14.01 3.86695 14.243 3.85293C14.4897 3.8508 14.7326 3.91359 14.9473 4.035C15.162 4.15641 15.341 4.33217 15.4664 4.54463C15.4808 4.56738 15.4905 4.5928 15.4948 4.61938C15.4992 4.64595 15.4981 4.67313 15.4917 4.69928C15.4853 4.72544 15.4737 4.75003 15.4575 4.77159C15.4414 4.79314 15.4211 4.81122 15.3978 4.82474C15.3746 4.83928 15.3487 4.84904 15.3217 4.85346C15.2947 4.85788 15.2671 4.85687 15.2405 4.85048C15.2138 4.84409 15.1888 4.83246 15.1667 4.81626C15.1446 4.80006 15.126 4.77962 15.1119 4.75614C15.0228 4.60528 14.8957 4.48047 14.7432 4.39419C14.5907 4.30791 14.4182 4.2632 14.243 4.26452C14.0788 4.27513 13.9195 4.32475 13.7784 4.40926C13.6372 4.49377 13.5182 4.61072 13.4313 4.75042C13.4188 4.77466 13.4014 4.79608 13.3803 4.81337C13.3592 4.83065 13.3347 4.84344 13.3085 4.85093C13.2823 4.85843 13.2548 4.86048 13.2277 4.85696C13.2007 4.85344 13.1746 4.84442 13.1512 4.83046C13.1078 4.8042 13.0756 4.76283 13.0608 4.7143C13.046 4.66576 13.0497 4.61348 13.0711 4.56749L13.0997 4.55035ZM8.12633 4.55035C8.25253 4.33867 8.43173 4.16354 8.64626 4.04224C8.86078 3.92094 9.10323 3.85767 9.34967 3.85864C9.58816 3.86913 9.82039 3.93825 10.0258 4.0599C10.2312 4.18155 10.4034 4.35196 10.5273 4.55606C10.5519 4.60479 10.5567 4.66116 10.5407 4.71337C10.5248 4.76557 10.4892 4.80958 10.4415 4.83617C10.4122 4.85412 10.3787 4.86399 10.3443 4.86476C10.307 4.86442 10.2704 4.8542 10.2382 4.83512C10.2061 4.81604 10.1796 4.78879 10.1614 4.75614C10.0745 4.61644 9.95551 4.49949 9.81433 4.41498C9.67315 4.33047 9.51386 4.28085 9.34967 4.27023C9.17458 4.26949 9.00232 4.31445 8.84992 4.40067C8.69753 4.48689 8.57029 4.61139 8.48075 4.76186C8.4527 4.80886 8.40713 4.84279 8.35406 4.85619C8.30099 4.86959 8.24478 4.86136 8.19778 4.83331C8.15079 4.80527 8.11685 4.7597 8.10345 4.70663C8.09005 4.65356 8.09828 4.59735 8.12633 4.55035V4.55035ZM9.26964 5.55074C10.2685 5.54608 11.233 5.91515 11.9736 6.58544C12.5527 6.06137 13.2715 5.71663 14.0428 5.59302C14.814 5.46942 15.6045 5.57226 16.3185 5.88908C17.0324 6.20589 17.6391 6.72307 18.0649 7.37787C18.4907 8.03268 18.7173 8.79697 18.7173 9.57805C18.7173 10.3591 18.4907 11.1234 18.0649 11.7782C17.6391 12.433 17.0324 12.9502 16.3185 13.267C15.6045 13.5838 14.814 13.6867 14.0428 13.5631C13.2715 13.4395 12.5527 13.0947 11.9736 12.5707C11.4879 13.0059 10.9039 13.3167 10.2717 13.4766C9.63949 13.6364 8.97793 13.6405 8.3438 13.4883C7.70968 13.3362 7.12193 13.0325 6.63102 12.6033C6.14011 12.174 5.76069 11.632 5.52534 11.0239C5.28999 10.4157 5.20573 9.75952 5.27979 9.11163C5.35386 8.46374 5.58403 7.84349 5.95056 7.30413C6.31709 6.76477 6.80903 6.32241 7.38415 6.01502C7.95927 5.70763 8.60039 5.54439 9.25248 5.53931L9.26964 5.55074Z" fill="white"/>
<path d="M11.9562 22.5844C14.08 22.5844 16.156 21.9548 17.9221 20.7753C19.6881 19.5958 21.0649 17.9192 21.8784 15.9575C22.6918 13.9957 22.9056 11.8369 22.4925 9.75372C22.0794 7.67056 21.0581 5.7566 19.5576 4.25371C18.0571 2.75082 16.1448 1.72645 14.0623 1.31006C11.9798 0.893662 9.82059 1.10393 7.85756 1.91429C5.89453 2.72466 4.21577 4.09874 3.03343 5.86289C1.85109 7.62705 1.21824 9.7021 1.21485 11.8258C1.21335 13.2376 1.49004 14.6359 2.0291 15.9407C2.56816 17.2456 3.35904 18.4314 4.35654 19.4305C5.35405 20.4296 6.53864 21.2224 7.84262 21.7635C9.14661 22.3047 10.5444 22.5836 11.9562 22.5844V22.5844ZM11.9562 2.13055C13.8783 2.13055 15.7572 2.70051 17.3554 3.76835C18.9535 4.83619 20.1991 6.35395 20.9346 8.12971C21.6702 9.90547 21.8626 11.8595 21.4876 13.7446C21.1127 15.6297 20.1871 17.3613 18.828 18.7204C17.4689 20.0795 15.7373 21.0051 13.8522 21.3801C11.967 21.7551 10.013 21.5626 8.23728 20.8271C6.46153 20.0915 4.94375 18.8459 3.87591 17.2478C2.80807 15.6496 2.23812 13.7707 2.23812 11.8487C2.23511 10.5706 2.48426 9.30439 2.97129 8.12269C3.45833 6.94099 4.17368 5.86697 5.07639 4.96213C5.9791 4.0573 7.05144 3.33942 8.23199 2.84961C9.41254 2.3598 10.6781 2.10768 11.9562 2.10768V2.13055Z" fill="#72DB0C"/>
<path d="M11.9557 15.2583C11.6102 15.2 11.2551 15.2488 10.9382 15.3984C10.6213 15.5479 10.3578 15.7909 10.1832 16.0947C10.0086 16.3985 9.93122 16.7484 9.96149 17.0975C9.99177 17.4466 10.1283 17.7781 10.3526 18.0472C10.5769 18.3164 10.8783 18.5104 11.2162 18.6032C11.5541 18.6959 11.9123 18.6829 12.2426 18.5659C12.5729 18.4489 12.8594 18.2336 13.0636 17.9489C13.2678 17.6641 13.38 17.3237 13.3848 16.9733C13.4214 16.5566 13.2916 16.1424 13.0239 15.8211C12.7561 15.4998 12.3721 15.2975 11.9557 15.2583Z" fill="#72DB0C"/>
<path d="M13.1518 4.84868C13.1752 4.86264 13.2013 4.87165 13.2283 4.87517C13.2554 4.8787 13.2829 4.87665 13.3091 4.86915C13.3354 4.86165 13.3598 4.84887 13.3809 4.83159C13.402 4.8143 13.4194 4.79288 13.4319 4.76864C13.5188 4.62894 13.6378 4.51199 13.779 4.42748C13.9202 4.34297 14.0795 4.29335 14.2437 4.28274C14.4189 4.28142 14.5913 4.32613 14.7438 4.41241C14.8963 4.49869 15.0235 4.6235 15.1126 4.77436C15.1266 4.79784 15.1453 4.81828 15.1673 4.83448C15.1894 4.85068 15.2145 4.86231 15.2411 4.8687C15.2677 4.87508 15.2953 4.8761 15.3223 4.87168C15.3493 4.86726 15.3752 4.85749 15.3984 4.84296C15.4217 4.82944 15.442 4.81136 15.4581 4.78981C15.4743 4.76825 15.4859 4.74366 15.4923 4.7175C15.4987 4.69135 15.4998 4.66417 15.4954 4.63759C15.4911 4.61102 15.4814 4.5856 15.467 4.56285C15.3417 4.35039 15.1627 4.17463 14.9479 4.05322C14.7332 3.93181 14.4903 3.86902 14.2437 3.87115C14.0106 3.88517 13.7846 3.95606 13.5853 4.07764C13.3859 4.19922 13.2195 4.36777 13.1003 4.56856C13.0712 4.61288 13.0602 4.66676 13.0698 4.71896C13.0794 4.77115 13.1088 4.81763 13.1518 4.84868V4.84868Z" fill="#72DB0C"/>
<path d="M8.16584 4.84292C8.18903 4.85745 8.21489 4.86722 8.24191 4.87164C8.26892 4.87606 8.29654 4.87504 8.32316 4.86866C8.34978 4.86227 8.37486 4.85063 8.39692 4.83444C8.41899 4.81824 8.4376 4.7978 8.45166 4.77432C8.5412 4.62385 8.66846 4.49935 8.82085 4.41313C8.97324 4.32691 9.14549 4.28195 9.32058 4.28269C9.48478 4.29331 9.64407 4.34293 9.78524 4.42744C9.92642 4.51194 10.0454 4.6289 10.1323 4.7686C10.1505 4.80125 10.177 4.8285 10.2091 4.84758C10.2413 4.86666 10.2779 4.87689 10.3153 4.87722C10.3496 4.87645 10.3831 4.86658 10.4124 4.84863C10.4601 4.82204 10.4957 4.77803 10.5117 4.72583C10.5276 4.67362 10.5228 4.61725 10.4982 4.56852C10.3744 4.36443 10.2021 4.19401 9.99671 4.07236C9.7913 3.95072 9.55908 3.88159 9.32058 3.8711C9.07414 3.87013 8.8317 3.93341 8.61717 4.0547C8.40264 4.176 8.22344 4.35113 8.09724 4.56281C8.06969 4.60917 8.06144 4.6645 8.07427 4.71689C8.0871 4.76927 8.11998 4.81453 8.16584 4.84292V4.84292Z" fill="#72DB0C"/>
<path d="M9.25288 13.6228C10.2519 13.6226 11.2153 13.2519 11.9568 12.5824C12.5336 13.0944 13.246 13.4288 14.0083 13.5454C14.7706 13.662 15.5504 13.5558 16.2538 13.2397C16.9572 12.9235 17.5543 12.4108 17.9732 11.7633C18.392 11.1158 18.6149 10.361 18.6149 9.5898C18.6149 8.81861 18.392 8.06384 17.9732 7.41632C17.5543 6.7688 16.9572 6.25611 16.2538 5.93995C15.5504 5.62379 14.7706 5.51762 14.0083 5.63422C13.246 5.75082 12.5336 6.08522 11.9568 6.59719C11.4711 6.16001 10.8864 5.8475 10.253 5.68659C9.61964 5.52568 8.95665 5.5212 8.32117 5.67353C7.68569 5.82586 7.09679 6.13044 6.60521 6.56101C6.11364 6.99158 5.73413 7.53523 5.49941 8.1451C5.26469 8.75498 5.1818 9.41278 5.25787 10.0618C5.33394 10.7109 5.5667 11.3317 5.93608 11.8707C6.30546 12.4098 6.80039 12.851 7.37821 13.1562C7.95602 13.4614 8.5994 13.6216 9.25288 13.6228ZM9.25288 6.68865C9.69135 6.68493 10.125 6.78074 10.521 6.96888C10.9171 7.15702 11.2653 7.43257 11.5395 7.7748L11.9797 8.34645L12.4198 7.7748C12.7959 7.30513 13.3085 6.96385 13.8869 6.79813C14.4653 6.63241 15.0809 6.65042 15.6486 6.84969C16.2163 7.04895 16.7081 7.41962 17.056 7.91048C17.4039 8.40134 17.5908 8.98814 17.5908 9.5898C17.5908 10.1915 17.4039 10.7783 17.056 11.2691C16.7081 11.76 16.2163 12.1307 15.6486 12.3299C15.0809 12.5292 14.4653 12.5472 13.8869 12.3815C13.3085 12.2158 12.7959 11.8745 12.4198 11.4048L11.9797 10.8617L11.5395 11.4048C11.233 11.7853 10.8354 12.0821 10.3835 12.2677C9.93156 12.4534 9.44006 12.5217 8.95465 12.4665C8.46923 12.4113 8.00566 12.2342 7.607 11.9518C7.20834 11.6694 6.88753 11.2908 6.67439 10.8512C6.46124 10.4116 6.36269 9.92529 6.38787 9.43739C6.41305 8.94949 6.56116 8.47588 6.81843 8.06056C7.0757 7.64524 7.43378 7.30169 7.8594 7.06184C8.28502 6.82198 8.76435 6.69361 9.25288 6.68865V6.68865Z" fill="#72DB0C"/>
<path d="M9.72181 10.3772C9.91402 10.3772 10.1019 10.3202 10.2617 10.2134C10.4215 10.1067 10.5461 9.95488 10.6197 9.7773C10.6932 9.59973 10.7124 9.40433 10.6749 9.21581C10.6374 9.0273 10.5449 8.85414 10.409 8.71823C10.2731 8.58232 10.0999 8.48977 9.9114 8.45227C9.72289 8.41477 9.52749 8.43401 9.34992 8.50757C9.17234 8.58112 9.02056 8.70568 8.91378 8.8655C8.80699 9.02531 8.75 9.2132 8.75 9.40541C8.75 9.66315 8.85238 9.91033 9.03463 10.0926C9.21688 10.2748 9.46407 10.3772 9.72181 10.3772Z" fill="#72DB0C"/>
<path d="M14.1749 10.3772C14.3671 10.3772 14.555 10.3202 14.7148 10.2134C14.8747 10.1067 14.9992 9.95488 15.0728 9.7773C15.1463 9.59973 15.1656 9.40433 15.1281 9.21581C15.0906 9.0273 14.998 8.85414 14.8621 8.71823C14.7262 8.58232 14.553 8.48977 14.3645 8.45227C14.176 8.41477 13.9806 8.43401 13.803 8.50757C13.6255 8.58112 13.4737 8.70568 13.3669 8.8655C13.2601 9.02531 13.2031 9.2132 13.2031 9.40541C13.2031 9.66315 13.3055 9.91033 13.4878 10.0926C13.67 10.2748 13.9172 10.3772 14.1749 10.3772Z" fill="#72DB0C"/>
<path d="M11.9564 2.10938C10.0344 2.10938 8.15545 2.67933 6.55731 3.74718C4.95917 4.81502 3.71357 6.33278 2.97803 8.10854C2.24249 9.8843 2.05004 11.8383 2.42502 13.7234C2.79999 15.6086 3.72556 17.3402 5.08467 18.6993C6.44377 20.0584 8.17537 20.9839 10.0605 21.3589C11.9456 21.7339 13.8996 21.5414 15.6754 20.8059C17.4511 20.0703 18.9689 18.8248 20.0368 17.2266C21.1046 15.6285 21.6746 13.7496 21.6746 11.8275C21.6746 9.2501 20.6507 6.77825 18.8282 4.95575C17.0057 3.13325 14.5338 2.10938 11.9564 2.10938V2.10938ZM11.9564 20.4309C10.2558 20.4264 8.59469 19.918 7.18287 18.9699C5.77106 18.0218 4.6719 16.6765 4.02423 15.1041C3.37656 13.5316 3.20945 11.8025 3.54399 10.1351C3.87853 8.46771 4.69972 6.93687 5.90384 5.73594C7.10795 4.53502 8.64096 3.71789 10.3092 3.38778C11.9775 3.05766 13.7062 3.22937 15.2769 3.88121C16.8477 4.53305 18.19 5.63577 19.1343 7.0501C20.0787 8.46442 20.5827 10.1269 20.5827 11.8275C20.5842 12.9607 20.3621 14.0832 19.9291 15.1304C19.4961 16.1777 18.8608 17.1292 18.0595 17.9306C17.2581 18.7319 16.3066 19.3672 15.2593 19.8002C14.2121 20.2332 13.0897 20.4553 11.9564 20.4538V20.4309Z" fill="white"/>
<path d="M11.9559 0C9.6111 4.36506e-06 7.31904 0.6956 5.36975 1.99875C3.42047 3.30191 1.90159 5.15404 1.00534 7.32075C0.109086 9.48746 -0.124252 11.8714 0.334855 14.1707C0.793962 16.4701 1.92488 18.5816 3.58448 20.238C5.24407 21.8944 7.35775 23.0212 9.658 23.4759C11.9583 23.9306 14.3417 23.6926 16.5067 22.7922C18.6717 21.8917 20.5209 20.3693 21.8202 18.4175C23.1196 16.4657 23.8108 14.1723 23.8063 11.8275C23.7957 8.68998 22.543 5.68428 20.3223 3.46782C18.1015 1.25135 15.0934 0.00451625 11.9559 0V0ZM11.9559 22.5861C9.8319 22.5872 7.75528 21.9586 5.98849 20.7798C4.2217 19.601 2.84405 17.9248 2.02968 15.9632C1.21531 14.0015 1.00078 11.8425 1.41321 9.75895C1.82563 7.67542 2.8465 5.76092 4.34677 4.25746C5.84703 2.754 7.75935 1.72906 9.842 1.3122C11.9247 0.895347 14.0841 1.10528 16.0475 1.91548C18.0109 2.72567 19.69 4.09975 20.8726 5.86403C22.0551 7.62831 22.6881 9.70358 22.6915 11.8275C22.693 13.2389 22.4165 14.6367 21.8778 15.9412C21.3391 17.2456 20.5488 18.4312 19.5519 19.4302C18.555 20.4293 17.371 21.2222 16.0677 21.7636C14.7644 22.3051 13.3672 22.5846 11.9559 22.5861Z" fill="white"/>
<defs>
<linearGradient id="paint0_linear_181_504" x1="12.162" y1="25.0278" x2="12.162" y2="0.109375" gradientUnits="userSpaceOnUse">
<stop stop-color="#BFBFBF"/>
<stop offset="1" stop-color="#606060"/>
</linearGradient>
</defs>
</svg>
