<svg width="25" height="25" viewBox="0 0 25 25" fill="none" xmlns="http://www.w3.org/2000/svg">
<path d="M12.2668 25.0011C19.0038 25.0011 24.4652 19.4062 24.4652 12.5045C24.4652 5.60275 19.0038 0.0078125 12.2668 0.0078125C5.52978 0.0078125 0.0683594 5.60275 0.0683594 12.5045C0.0683594 19.4062 5.52978 25.0011 12.2668 25.0011Z" fill="url(#paint0_linear_181_517)"/>
<path d="M11.8894 22.6694C14.0207 22.6694 16.1042 22.0374 17.8763 20.8533C19.6484 19.6692 21.0296 17.9862 21.8453 16.0172C22.6609 14.0481 22.8743 11.8814 22.4585 9.791C22.0427 7.70063 21.0163 5.78051 19.5093 4.27344C18.0022 2.76637 16.0821 1.74005 13.9917 1.32425C11.9014 0.908453 9.73464 1.12186 7.76556 1.93748C5.79648 2.7531 4.11348 4.1343 2.92939 5.90643C1.74529 7.67855 1.11328 9.762 1.11328 11.8933C1.11632 14.7504 2.25263 17.4896 4.27289 19.5098C6.29315 21.5301 9.03234 22.6664 11.8894 22.6694V22.6694ZM11.8894 2.1495C13.8177 2.1495 15.7027 2.7213 17.306 3.79259C18.9093 4.86389 20.1589 6.38656 20.8968 8.16806C21.6347 9.94956 21.8278 11.9099 21.4516 13.8011C21.0754 15.6923 20.1469 17.4295 18.7834 18.793C17.4199 20.1565 15.6827 21.0851 13.7915 21.4613C11.9002 21.8375 9.93992 21.6444 8.15842 20.9065C6.37692 20.1685 4.85425 18.9189 3.78295 17.3156C2.71166 15.7123 2.13985 13.8273 2.13985 11.8991C2.13985 9.31331 3.16704 6.83347 4.99543 5.00508C6.82383 3.17668 9.30367 2.1495 11.8894 2.1495V2.1495Z" fill="#72DB0C"/>
<path d="M8.08117 11.1437V11.7172H8.86687V11.0806C9.12349 11.0201 9.35142 10.873 9.51228 10.6641C9.67314 10.4551 9.75711 10.1972 9.75007 9.93362C9.7378 9.64549 9.63382 9.36881 9.45329 9.14391C9.27275 8.91902 9.0251 8.75766 8.74644 8.68338C8.23028 8.47119 8.17293 8.36796 8.17293 8.24752C8.17293 8.12709 8.31058 7.98944 8.55145 7.98944C8.75428 7.991 8.95275 8.04856 9.12495 8.15576L9.34288 8.27619L9.42891 8.03532L9.57228 7.66255L9.6411 7.48476L9.47478 7.38727C9.28806 7.27283 9.07866 7.20041 8.86114 7.17507V6.60156H8.08117V7.21522C7.83771 7.27598 7.62194 7.41725 7.4689 7.61611C7.31586 7.81496 7.23453 8.05971 7.23812 8.31061C7.23812 8.99308 7.77148 9.29704 8.2991 9.5035C8.72923 9.68128 8.79232 9.83039 8.79232 9.96803C8.79232 10.1057 8.56291 10.2949 8.33924 10.2949C8.09478 10.2936 7.85586 10.2219 7.65104 10.0885L7.42738 9.93362L7.33561 10.1974L7.19798 10.5817L7.14062 10.7423L7.27827 10.8455C7.51649 11.011 7.79268 11.1136 8.08117 11.1437Z" fill="#72DB0C"/>
<path d="M14.9619 11.1437V11.7172H15.7476V11.0806C16.0042 11.0201 16.2321 10.873 16.393 10.6641C16.5539 10.4551 16.6378 10.1972 16.6308 9.93362C16.6185 9.64549 16.5146 9.36881 16.334 9.14391C16.1535 8.91902 15.9058 8.75766 15.6272 8.68338C15.1053 8.47119 15.0537 8.36796 15.0537 8.24752C15.0537 8.12709 15.1913 7.98944 15.4264 7.98944C15.6292 7.99129 15.8276 8.04883 15.9999 8.15576L16.2179 8.27619L16.3039 8.03532L16.4473 7.66255L16.5161 7.48476L16.3498 7.38727C16.1614 7.27187 15.9499 7.19941 15.7304 7.17507V6.60156H14.9562V7.21522C14.7127 7.27598 14.4969 7.41725 14.3439 7.61611C14.1909 7.81496 14.1095 8.05971 14.1131 8.31061C14.1131 8.99308 14.6465 9.29704 15.1741 9.5035C15.6042 9.68128 15.6673 9.83039 15.6673 9.96803C15.6673 10.1057 15.4379 10.2949 15.2142 10.2949C14.9697 10.2943 14.7306 10.2225 14.526 10.0885L14.3024 9.93362L14.2106 10.1974L14.073 10.5817L14.0156 10.7423L14.1533 10.8455C14.3931 11.0119 14.6714 11.1145 14.9619 11.1437V11.1437Z" fill="#72DB0C"/>
<path d="M11.8885 19.5896C13.6589 19.5896 15.3569 18.8863 16.6088 17.6344C17.8607 16.3825 18.564 14.6845 18.564 12.9141H5.21289C5.21289 14.6845 5.91621 16.3825 7.16812 17.6344C8.42003 18.8863 10.118 19.5896 11.8885 19.5896V19.5896Z" fill="#72DB0C"/>
<path d="M11.8887 0C9.53736 0 7.2388 0.697263 5.28371 2.00361C3.32862 3.30996 1.80481 5.16672 0.904981 7.3391C0.00515152 9.51148 -0.230285 11.9019 0.228444 14.2081C0.687173 16.5143 1.81946 18.6327 3.48213 20.2953C5.1448 21.958 7.26317 23.0903 9.56936 23.549C11.8755 24.0077 14.266 23.7723 16.4384 22.8725C18.6107 21.9726 20.4675 20.4488 21.7738 18.4937C23.0802 16.5387 23.7775 14.2401 23.7775 11.8887C23.7744 8.73657 22.5209 5.71439 20.292 3.48548C18.0631 1.25657 15.0409 0.00303676 11.8887 0V0ZM11.8887 22.6649C9.75741 22.6649 7.67396 22.0328 5.90184 20.8488C4.12971 19.6647 2.74851 17.9817 1.93289 16.0126C1.11727 14.0435 0.903864 11.8768 1.31966 9.78641C1.73546 7.69604 2.76179 5.77592 4.26886 4.26885C5.77593 2.76178 7.69605 1.73545 9.78642 1.31965C11.8768 0.903855 14.0435 1.11726 16.0126 1.93288C17.9817 2.7485 19.6647 4.1297 20.8488 5.90183C22.0329 7.67395 22.6649 9.75741 22.6649 11.8887C22.6633 14.7468 21.5277 17.4875 19.5073 19.509C17.4869 21.5304 14.7468 22.6675 11.8887 22.6706V22.6649Z" fill="white"/>
<path d="M11.8882 2.15234C9.95995 2.15234 8.07498 2.72415 6.47167 3.79544C4.86837 4.86674 3.61874 6.38941 2.88082 8.17091C2.1429 9.95241 1.94982 11.9127 2.32601 13.8039C2.7022 15.6952 3.63076 17.4324 4.99426 18.7959C6.35776 20.1594 8.09496 21.0879 9.98619 21.4641C11.8774 21.8403 13.8377 21.6472 15.6192 20.9093C17.4007 20.1714 18.9234 18.9218 19.9947 17.3185C21.066 15.7152 21.6378 13.8302 21.6378 11.9019C21.6378 9.31616 20.6106 6.83632 18.7822 5.00792C16.9538 3.17953 14.474 2.15234 11.8882 2.15234ZM11.8882 19.5926C10.1178 19.5926 8.4198 18.8893 7.16788 17.6373C5.91597 16.3854 5.21265 14.6875 5.21265 12.917H18.5638C18.5638 14.6875 17.8605 16.3854 16.6086 17.6373C15.3567 18.8893 13.6587 19.5926 11.8882 19.5926V19.5926ZM7.20844 10.6115L7.34609 10.2273L7.43785 9.96346L7.66151 10.1183C7.86634 10.2518 8.10525 10.3234 8.34972 10.3248C8.57338 10.3248 8.80278 10.2215 8.80278 9.99787C8.80278 9.7742 8.7397 9.71112 8.30957 9.53333C7.78194 9.32687 7.24859 9.02291 7.24859 8.34044C7.245 8.08954 7.32633 7.8448 7.47937 7.64595C7.63241 7.4471 7.84819 7.30582 8.09164 7.24506V6.6314H8.87161V7.20491C9.08914 7.23025 9.29853 7.30266 9.48525 7.4171L9.65157 7.5146L9.58275 7.69239L9.43937 8.06516L9.35335 8.30603L9.13541 8.1856C8.96321 8.0784 8.76475 8.02084 8.56191 8.01928C8.32104 8.01928 8.1834 8.11678 8.1834 8.27736C8.1834 8.43794 8.22354 8.50103 8.7569 8.71322C9.03556 8.78751 9.28321 8.94886 9.46375 9.17375C9.64429 9.39865 9.74826 9.67532 9.76053 9.96346C9.76758 10.227 9.6836 10.485 9.52274 10.6939C9.36188 10.9028 9.13396 11.0499 8.87734 11.1105V11.7471H8.08017V11.1736C7.80811 11.1456 7.54662 11.0532 7.31741 10.904L7.17977 10.8008L7.20844 10.6115ZM14.0905 10.6115L14.2281 10.2273L14.3199 9.96346L14.5436 10.1183C14.7481 10.2524 14.9872 10.3241 15.2318 10.3248C15.4554 10.3248 15.6848 10.2215 15.6848 9.99787C15.6848 9.7742 15.6217 9.71112 15.1916 9.53333C14.664 9.32687 14.1306 9.02291 14.1306 8.34044C14.127 8.08954 14.2084 7.8448 14.3614 7.64595C14.5145 7.4471 14.7302 7.30582 14.9737 7.24506V6.6314H15.7479V7.20491C15.9675 7.22925 16.1789 7.3017 16.3673 7.4171L16.5336 7.5146L16.4648 7.69239L16.3214 8.06516L16.2354 8.30603L16.0175 8.1856C15.8451 8.07867 15.6467 8.02113 15.444 8.01928C15.2088 8.01928 15.0712 8.11678 15.0712 8.27736C15.0712 8.43794 15.1056 8.50103 15.6447 8.71322C15.9233 8.78751 16.171 8.94886 16.3515 9.17375C16.5321 9.39865 16.636 9.67532 16.6483 9.96346C16.6554 10.227 16.5714 10.485 16.4105 10.6939C16.2497 10.9028 16.0217 11.0499 15.7651 11.1105V11.7471H14.9622V11.1736C14.6901 11.1456 14.4287 11.0532 14.1995 10.904L14.0618 10.8008L14.0905 10.6115Z" fill="white"/>
<defs>
<linearGradient id="paint0_linear_181_517" x1="12.2668" y1="25.0068" x2="12.2668" y2="0.0078125" gradientUnits="userSpaceOnUse">
<stop stop-color="#BFBFBF"/>
<stop offset="1" stop-color="#606060"/>
</linearGradient>
</defs>
</svg>
