<svg width="25" height="25" viewBox="0 0 25 25" fill="none" xmlns="http://www.w3.org/2000/svg">
<path d="M12.4207 25.0016C19.0831 25.0016 24.484 19.4686 24.484 12.6434C24.484 5.81811 19.0831 0.285156 12.4207 0.285156C5.75834 0.285156 0.357422 5.81811 0.357422 12.6434C0.357422 19.4686 5.75834 25.0016 12.4207 25.0016Z" fill="url(#paint0_linear_181_525)"/>
<path d="M9.59062 10.2084C9.842 10.2084 10.0901 10.1513 10.3161 10.0412C10.5421 9.93115 10.7401 9.77109 10.8951 9.57315C10.9394 9.51804 10.9955 9.47362 11.0593 9.44318C11.1232 9.41274 11.193 9.39708 11.2637 9.39734H11.2921C11.3679 9.40294 11.4414 9.42641 11.5065 9.46584C11.5715 9.50526 11.6263 9.55953 11.6664 9.6242C11.9018 10.0205 12.2609 10.3285 12.6884 10.5009C13.1159 10.6733 13.5881 10.7005 14.0326 10.5784C14.4771 10.4564 14.8692 10.1917 15.1486 9.82513C15.4281 9.45857 15.5795 9.01038 15.5795 8.54944C15.5795 8.0885 15.4281 7.64031 15.1486 7.27375C14.8692 6.90719 14.4771 6.64253 14.0326 6.52045C13.5881 6.39837 13.1159 6.42562 12.6884 6.59802C12.2609 6.77041 11.9018 7.07841 11.6664 7.47469C11.6282 7.54087 11.5742 7.59662 11.5094 7.637C11.4445 7.67737 11.3706 7.70114 11.2944 7.70618C11.2181 7.71123 11.1418 7.69741 11.0721 7.66593C11.0025 7.63446 10.9417 7.58631 10.8951 7.52574C10.7213 7.30577 10.4946 7.1335 10.236 7.02509C9.97753 6.91667 9.69573 6.87564 9.41704 6.90585C9.13835 6.93606 8.87189 7.03653 8.64262 7.19783C8.41335 7.35913 8.22878 7.57599 8.1062 7.82809C7.98361 8.08018 7.92702 8.35927 7.94174 8.63921C7.95645 8.91915 8.04199 9.19077 8.19032 9.42863C8.33866 9.66649 8.54495 9.8628 8.78987 9.99917C9.03478 10.1355 9.3103 10.2075 9.59062 10.2084V10.2084ZM13.3168 7.68454C13.4884 7.68454 13.6562 7.73543 13.7989 7.83078C13.9416 7.92613 14.0528 8.06165 14.1185 8.22021C14.1842 8.37877 14.2014 8.55325 14.1679 8.72157C14.1344 8.8899 14.0517 9.04451 13.9304 9.16587C13.809 9.28722 13.6544 9.36986 13.4861 9.40334C13.3178 9.43683 13.1433 9.41964 12.9847 9.35396C12.8262 9.28829 12.6907 9.17707 12.5953 9.03437C12.5 8.89167 12.4491 8.7239 12.4491 8.55228C12.4483 8.43812 12.4702 8.32494 12.5136 8.21932C12.5569 8.1137 12.6208 8.01774 12.7015 7.93701C12.7823 7.85629 12.8782 7.7924 12.9838 7.74906C13.0895 7.70572 13.2026 7.68379 13.3168 7.68454V7.68454ZM9.31272 7.68454C9.48434 7.68454 9.65212 7.73543 9.79482 7.83078C9.93751 7.92613 10.0487 8.06165 10.1144 8.22021C10.1801 8.37877 10.1973 8.55325 10.1638 8.72157C10.1303 8.8899 10.0477 9.04451 9.9263 9.16587C9.80495 9.28722 9.65033 9.36986 9.48201 9.40334C9.31368 9.43683 9.13921 9.41964 8.98065 9.35396C8.82209 9.28829 8.68657 9.17707 8.59122 9.03437C8.49587 8.89167 8.44498 8.7239 8.44498 8.55228C8.44498 8.32214 8.5364 8.10143 8.69914 7.93869C8.86187 7.77596 9.08258 7.68454 9.31272 7.68454Z" fill="white"/>
<path d="M11.7564 22.419C13.8641 22.419 15.9245 21.794 17.677 20.623C19.4294 19.452 20.7954 17.7877 21.6019 15.8404C22.4085 13.8931 22.6196 11.7504 22.2084 9.6832C21.7972 7.61599 20.7822 5.71714 19.2918 4.22676C17.8015 2.73639 15.9026 1.72143 13.8354 1.31024C11.7682 0.899047 9.62547 1.11009 7.6782 1.91667C5.73094 2.72326 4.06658 4.08916 2.8956 5.84166C1.72462 7.59415 1.09961 9.65453 1.09961 11.7622C1.10111 14.5881 2.22436 17.2978 4.22256 19.296C6.22077 21.2942 8.93049 22.4175 11.7564 22.419V22.419ZM11.7564 2.12067C13.6633 2.12067 15.5274 2.68613 17.1129 3.74556C18.6985 4.80499 19.9343 6.3108 20.664 8.07256C21.3938 9.83433 21.5847 11.7729 21.2127 13.6432C20.8406 15.5135 19.9224 17.2314 18.574 18.5798C17.2256 19.9282 15.5076 20.8465 13.6373 21.2185C11.7671 21.5905 9.82847 21.3996 8.0667 20.6699C6.30494 19.9401 4.79913 18.7043 3.7397 17.1188C2.68028 15.5332 2.11481 13.6692 2.11481 11.7622C2.11481 9.20513 3.13061 6.75276 4.93875 4.94461C6.7469 3.13647 9.19927 2.12067 11.7564 2.12067V2.12067Z" fill="#EB6DC1"/>
<path d="M15.9713 14.5584C15.853 14.4985 15.716 14.4875 15.5897 14.5278C15.4634 14.5682 15.3581 14.6565 15.2964 14.7739C15.0112 15.3264 14.6103 15.8111 14.1209 16.1947C13.6316 16.5784 13.0653 16.852 12.4606 16.9971C12.3389 17.0233 12.2314 17.0939 12.1592 17.1953C12.0869 17.2966 12.0551 17.4213 12.07 17.5449C12.0849 17.6684 12.1455 17.782 12.2398 17.8632C12.3341 17.9444 12.4553 17.9875 12.5797 17.984H12.6988C13.4455 17.804 14.1448 17.4657 14.7495 16.9922C15.3542 16.5186 15.8501 15.9207 16.2038 15.2389C16.2346 15.1792 16.2529 15.1139 16.2578 15.047C16.2627 14.98 16.2541 14.9127 16.2324 14.8492C16.2106 14.7857 16.1763 14.7271 16.1315 14.6772C16.0866 14.6272 16.0321 14.5868 15.9713 14.5584V14.5584Z" fill="#EB6DC1"/>
<path d="M9.58975 11.1492C10.1793 11.1505 10.7516 10.9504 11.2118 10.582C11.6227 11.0399 12.1629 11.3623 12.7609 11.5067C13.359 11.6511 13.9868 11.6106 14.5613 11.3906C15.1359 11.1706 15.6301 10.7814 15.9788 10.2745C16.3275 9.76763 16.5142 9.16688 16.5142 8.55165C16.5142 7.93642 16.3275 7.33567 15.9788 6.82879C15.6301 6.3219 15.1359 5.93274 14.5613 5.71274C13.9868 5.49273 13.359 5.45223 12.7609 5.59659C12.1629 5.74095 11.6227 6.06337 11.2118 6.52125C10.8876 6.26254 10.5061 6.08524 10.0993 6.00418C9.69251 5.92312 9.27221 5.94066 8.87358 6.05533C8.47495 6.17 8.10958 6.37848 7.80804 6.6633C7.50649 6.94813 7.27755 7.30103 7.14035 7.69247C7.00315 8.08392 6.96169 8.50254 7.01944 8.91329C7.07719 9.32405 7.23247 9.715 7.47229 10.0534C7.7121 10.3919 8.02948 10.668 8.39787 10.8586C8.76626 11.0492 9.17495 11.1489 9.58975 11.1492ZM9.58975 6.88989C9.84113 6.88982 10.0892 6.94699 10.3152 7.05704C10.5412 7.1671 10.7392 7.32717 10.8942 7.52511C10.9408 7.58568 11.0016 7.63383 11.0713 7.6653C11.1409 7.69677 11.2172 7.7106 11.2935 7.70555C11.3697 7.7005 11.4436 7.67674 11.5085 7.63636C11.5734 7.59599 11.6273 7.54024 11.6655 7.47406C11.9011 7.07609 12.2609 6.76656 12.6896 6.59308C13.1183 6.41959 13.5921 6.39178 14.0382 6.51391C14.4843 6.63604 14.8778 6.90134 15.1584 7.26901C15.4389 7.63668 15.5908 8.08634 15.5908 8.54881C15.5908 9.01128 15.4389 9.46094 15.1584 9.82861C14.8778 10.1963 14.4843 10.4616 14.0382 10.5837C13.5921 10.7058 13.1183 10.678 12.6896 10.5045C12.2609 10.3311 11.9011 10.0215 11.6655 9.62356C11.6255 9.5589 11.5707 9.50463 11.5056 9.4652C11.4405 9.42577 11.3671 9.4023 11.2912 9.3967H11.2628C11.1921 9.39644 11.1223 9.41211 11.0585 9.44254C10.9946 9.47298 10.9385 9.51741 10.8942 9.57252C10.7204 9.79249 10.4937 9.96475 10.2352 10.0732C9.97665 10.1816 9.69485 10.2226 9.41616 10.1924C9.13747 10.1622 8.87101 10.0617 8.64174 9.90043C8.41247 9.73913 8.2279 9.52227 8.10532 9.27017C7.98273 9.01807 7.92614 8.73898 7.94086 8.45904C7.95557 8.1791 8.04111 7.90748 8.18945 7.66962C8.33778 7.43176 8.54407 7.23545 8.78899 7.09908C9.0339 6.9627 9.30942 6.89072 9.58975 6.88989V6.88989Z" fill="#EB6DC1"/>
<path d="M9.31305 9.41908C9.48468 9.41908 9.65245 9.36818 9.79515 9.27283C9.93785 9.17749 10.0491 9.04197 10.1147 8.88341C10.1804 8.72485 10.1976 8.55037 10.1641 8.38205C10.1306 8.21372 10.048 8.05911 9.92664 7.93775C9.80528 7.8164 9.65067 7.73375 9.48234 7.70027C9.31402 7.66679 9.13955 7.68397 8.98099 7.74965C8.82243 7.81532 8.68691 7.92655 8.59156 8.06925C8.49621 8.21195 8.44531 8.37972 8.44531 8.55134C8.4468 8.78102 8.53871 9.00087 8.70112 9.16328C8.86353 9.3257 9.08337 9.41759 9.31305 9.41908V9.41908Z" fill="#EB6DC1"/>
<path d="M13.317 9.41908C13.4886 9.41908 13.6563 9.36818 13.799 9.27283C13.9417 9.17749 14.053 9.04197 14.1186 8.88341C14.1843 8.72485 14.2015 8.55037 14.168 8.38205C14.1345 8.21372 14.0519 8.05911 13.9305 7.93775C13.8092 7.8164 13.6546 7.73375 13.4862 7.70027C13.3179 7.66679 13.1434 7.68397 12.9849 7.74965C12.8263 7.81532 12.6908 7.92655 12.5955 8.06925C12.5001 8.21195 12.4492 8.37972 12.4492 8.55134C12.4492 8.78148 12.5406 9.00219 12.7034 9.16493C12.8661 9.32766 13.0868 9.41908 13.317 9.41908Z" fill="#EB6DC1"/>
<path d="M8.00809 4.95806H10.1803C10.2344 4.95806 10.2864 4.93654 10.3246 4.89825C10.3629 4.85996 10.3844 4.80804 10.3844 4.75389C10.3844 4.69974 10.3629 4.6478 10.3246 4.60951C10.2864 4.57122 10.2344 4.54971 10.1803 4.54971H8.01376C7.9837 4.54472 7.95292 4.54633 7.92356 4.55444C7.89419 4.56254 7.86693 4.57694 7.84369 4.59664C7.82045 4.61634 7.80178 4.64086 7.78897 4.6685C7.77616 4.69615 7.76953 4.72625 7.76953 4.75672C7.76953 4.78718 7.77616 4.81728 7.78897 4.84493C7.80178 4.87257 7.82045 4.8971 7.84369 4.9168C7.86693 4.9365 7.89419 4.9509 7.92356 4.959C7.95292 4.96711 7.9837 4.96872 8.01376 4.96373L8.00809 4.95806Z" fill="#EB6DC1"/>
<path d="M12.0356 4.9568H12.098L14.1624 4.29891C14.1881 4.29113 14.212 4.27834 14.2328 4.26129C14.2536 4.24425 14.2708 4.22327 14.2834 4.19956C14.2961 4.17585 14.3039 4.14987 14.3065 4.12312C14.3091 4.09638 14.3064 4.06938 14.2985 4.04369C14.2816 3.99132 14.2447 3.9477 14.1959 3.92224C14.1471 3.89678 14.0903 3.89151 14.0376 3.90757L11.9732 4.53711C11.9475 4.54489 11.9235 4.55767 11.9028 4.57472C11.882 4.59177 11.8648 4.61275 11.8521 4.63646C11.8395 4.66017 11.8317 4.68614 11.8291 4.71289C11.8265 4.73964 11.8292 4.76663 11.8371 4.79232C11.8472 4.83792 11.8721 4.87884 11.9081 4.90863C11.944 4.93842 11.9889 4.95538 12.0356 4.9568V4.9568Z" fill="#EB6DC1"/>
<path d="M11.757 0C9.43172 0 7.15861 0.689539 5.22517 1.98142C3.29174 3.2733 1.78482 5.10949 0.894956 7.25781C0.00509445 9.40612 -0.227734 11.7701 0.225913 14.0507C0.679561 16.3314 1.79931 18.4263 3.44356 20.0705C5.08781 21.7148 7.18271 22.8345 9.46335 23.2882C11.744 23.7418 14.1079 23.509 16.2563 22.6191C18.4046 21.7292 20.2408 20.2223 21.5326 18.2889C22.8245 16.3555 23.5141 14.0824 23.5141 11.757C23.5111 8.63979 22.2714 5.6511 20.0672 3.44687C17.863 1.24265 14.8743 0.00300312 11.757 0ZM11.757 22.4138C9.64909 22.4149 7.58815 21.7909 5.83491 20.6206C4.08167 19.4503 2.71488 17.7863 1.90743 15.8391C1.09997 13.892 0.888123 11.7491 1.29868 9.68148C1.70923 7.6139 2.72374 5.71452 4.21389 4.22357C5.70404 2.73263 7.60288 1.71711 9.67025 1.30545C11.7376 0.893799 13.8806 1.10451 15.8282 1.91093C17.7758 2.71735 19.4405 4.08325 20.6117 5.83586C21.783 7.58848 22.4081 9.64908 22.4081 11.757C22.4066 14.5825 21.2843 17.2919 19.2875 19.2908C17.2907 21.2898 14.5825 22.415 11.757 22.4195V22.4138Z" fill="white"/>
<path d="M11.7568 2.12109C9.84988 2.12109 7.98578 2.68656 6.40023 3.74598C4.81469 4.80541 3.5789 6.31122 2.84916 8.07298C2.11941 9.83475 1.92848 11.7733 2.3005 13.6436C2.67252 15.5139 3.59079 17.2319 4.93918 18.5803C6.28758 19.9287 8.00554 20.8469 9.87582 21.2189C11.7461 21.591 13.6847 21.4 15.4465 20.6703C17.2082 19.9405 18.714 18.7048 19.7735 17.1192C20.8329 15.5337 21.3984 13.6696 21.3984 11.7627C21.3984 9.20555 20.3826 6.75318 18.5744 4.94503C16.7663 3.13689 14.3139 2.12109 11.7568 2.12109ZM12.4431 17.0145C13.0477 16.8694 13.614 16.5957 14.1033 16.2121C14.5927 15.8284 14.9936 15.3438 15.2788 14.7912C15.339 14.6732 15.4436 14.5838 15.5696 14.5429C15.6957 14.5019 15.8328 14.5127 15.9509 14.5729C16.069 14.6331 16.1583 14.7377 16.1992 14.8637C16.2402 14.9897 16.2294 15.1269 16.1692 15.245C15.8155 15.9267 15.3196 16.5246 14.7149 16.9982C14.1102 17.4717 13.4109 17.81 12.6642 17.99H12.5451C12.4207 17.9935 12.2995 17.9504 12.2052 17.8692C12.1109 17.788 12.0503 17.6744 12.0354 17.5509C12.0205 17.4273 12.0523 17.3026 12.1246 17.2013C12.1968 17.1 12.3043 17.0293 12.426 17.0031L12.4431 17.0145ZM13.4696 11.6095C13.0418 11.6097 12.6188 11.5199 12.228 11.346C11.8371 11.172 11.4872 10.9179 11.201 10.6C10.8187 10.905 10.3582 11.0959 9.87225 11.1508C9.38632 11.2056 8.89479 11.1222 8.45417 10.9101C8.01356 10.6979 7.64177 10.3658 7.38158 9.95173C7.12138 9.53769 6.98333 9.0586 6.98333 8.56959C6.98333 8.08058 7.12138 7.6015 7.38158 7.18746C7.64177 6.77342 8.01356 6.44124 8.45417 6.22913C8.89479 6.01701 9.38632 5.93358 9.87225 5.98843C10.3582 6.04329 10.8187 6.23419 11.201 6.53919C11.5394 6.16216 11.9666 5.87566 12.4438 5.70575C12.9211 5.53584 13.4333 5.4879 13.9338 5.56628C14.4343 5.64466 14.9072 5.84688 15.3097 6.15456C15.7122 6.46225 16.0314 6.86563 16.2383 7.32806C16.4452 7.79049 16.5332 8.29729 16.4944 8.8024C16.4556 9.30752 16.2912 9.79493 16.0161 10.2203C15.741 10.6457 15.364 10.9957 14.9192 11.2383C14.4745 11.4809 13.9762 11.6085 13.4696 11.6095ZM10.3843 4.80371C10.3843 4.85786 10.3628 4.9098 10.3245 4.94809C10.2862 4.98638 10.2343 5.00789 10.1801 5.00789V5.00789H8.00794C7.97788 5.01288 7.9471 5.01127 7.91773 5.00316C7.88836 4.99506 7.86111 4.98066 7.83787 4.96096C7.81463 4.94126 7.79596 4.91673 7.78315 4.88909C7.77034 4.86144 7.7637 4.83134 7.7637 4.80088C7.7637 4.77041 7.77034 4.74031 7.78315 4.71266C7.79596 4.68502 7.81463 4.6605 7.83787 4.6408C7.86111 4.6211 7.88836 4.6067 7.91773 4.5986C7.9471 4.59049 7.97788 4.58888 8.00794 4.59387V4.59387H10.1744C10.225 4.59198 10.2744 4.60892 10.3132 4.6414C10.352 4.67388 10.3773 4.71959 10.3843 4.76969V4.80371ZM11.9723 4.58819L14.0367 3.9303C14.0894 3.91423 14.1462 3.9195 14.195 3.94497C14.2438 3.97043 14.2807 4.01405 14.2976 4.06642C14.3055 4.09211 14.3082 4.1191 14.3056 4.14585C14.3031 4.1726 14.2952 4.19857 14.2826 4.22228C14.2699 4.24599 14.2527 4.26698 14.2319 4.28403C14.2112 4.30108 14.1872 4.31385 14.1615 4.32163L12.0971 4.97953H12.0347C11.9903 4.97914 11.9471 4.96465 11.9114 4.93815C11.8758 4.91164 11.8494 4.8745 11.8362 4.83207C11.8215 4.8043 11.8134 4.7735 11.8125 4.74207C11.8116 4.71065 11.8181 4.67944 11.8312 4.6509C11.8444 4.62236 11.864 4.59725 11.8885 4.57751C11.9129 4.55778 11.9416 4.54397 11.9723 4.53715V4.58819Z" fill="white"/>
<defs>
<linearGradient id="paint0_linear_181_525" x1="12.4207" y1="25.0073" x2="12.4207" y2="0.285156" gradientUnits="userSpaceOnUse">
<stop stop-color="#BFBFBF"/>
<stop offset="1" stop-color="#606060"/>
</linearGradient>
</defs>
</svg>
