<svg width="26" height="25" viewBox="0 0 26 25" fill="none" xmlns="http://www.w3.org/2000/svg">
<path d="M13.3112 0.542969C10.1145 0.612639 7.0722 1.93145 4.83603 4.21689C2.59986 6.50233 1.34766 9.57263 1.34766 12.7701C1.34766 15.9675 2.59986 19.0378 4.83603 21.3233C7.0722 23.6087 10.1145 24.9275 13.3112 24.9972C15.6985 24.9984 18.0298 24.2733 19.9953 22.9182C20.1633 23.1457 20.3992 23.3141 20.6691 23.3989C20.9389 23.4838 21.2287 23.4808 21.4967 23.3904C21.7647 23.3 21.9971 23.1268 22.1604 22.8958C22.3237 22.6649 22.4094 22.388 22.4053 22.1052V21.8323C22.4061 21.5984 22.3461 21.3683 22.231 21.1646C22.116 20.961 21.9499 20.7908 21.7491 20.6708C21.9503 20.5513 22.1167 20.3812 22.2318 20.1774C22.3469 19.9737 22.4067 19.7434 22.4053 19.5094V18.9809C23.1955 18.6745 23.8587 18.1096 24.2868 17.3781V17.3781C24.9303 16.1376 25.2856 14.768 25.3263 13.3711V13.2898C25.3263 13.1214 25.3263 12.953 25.3263 12.7788C25.3496 9.5647 24.0982 6.47238 21.8462 4.17904C19.5942 1.88569 16.5252 0.578222 13.3112 0.542969Z" fill="url(#paint0_linear_181_485)"/>
<path d="M18.3559 13.7578C18.3089 13.8344 18.2501 13.903 18.1816 13.9611C18.2501 13.903 18.3089 13.8344 18.3559 13.7578V13.7578Z" fill="#2D3349"/>
<path d="M14.1171 7.48056C13.7827 7.47753 13.452 7.55074 13.1501 7.69463C12.8482 7.83853 12.5831 8.04931 12.3749 8.31099L12.0381 8.72911L11.7013 8.31099C11.4141 7.95443 11.0233 7.69575 10.5829 7.57061C10.1425 7.44548 9.67411 7.46005 9.24233 7.61232C8.81055 7.76459 8.43664 8.04706 8.17216 8.42078C7.90767 8.7945 7.76562 9.24107 7.76562 9.69892C7.76562 10.1568 7.90767 10.6033 8.17216 10.9771C8.43664 11.3508 8.81055 11.6333 9.24233 11.7855C9.67411 11.9378 10.1425 11.9524 10.5829 11.8272C11.0233 11.7021 11.4141 11.4434 11.7013 11.0868L12.0381 10.6687L12.3749 11.0868C12.6093 11.3791 12.9138 11.6072 13.2602 11.7499C13.6065 11.8926 13.9833 11.9453 14.3555 11.9031C14.7277 11.8609 15.0832 11.7251 15.3887 11.5084C15.6943 11.2917 15.94 11.0012 16.1029 10.6639C16.2659 10.3266 16.3407 9.9535 16.3206 9.57946C16.3004 9.20541 16.1859 8.84256 15.9876 8.52474C15.7893 8.20693 15.5138 7.94449 15.1867 7.7619C14.8596 7.57932 14.4917 7.48253 14.1171 7.48056ZM9.79651 10.1577C9.60125 10.1577 9.41039 10.0998 9.24804 9.99131C9.08569 9.88283 8.95915 9.72865 8.88443 9.54826C8.80971 9.36786 8.79016 9.16937 8.82825 8.97786C8.86634 8.78636 8.96036 8.61045 9.09843 8.47239C9.23649 8.33432 9.4124 8.2403 9.6039 8.2022C9.7954 8.16411 9.99392 8.18366 10.1743 8.25838C10.3547 8.3331 10.5089 8.45964 10.6174 8.62199C10.7258 8.78434 10.7837 8.97521 10.7837 9.17046C10.7838 9.30158 10.7576 9.4314 10.7069 9.55233C10.6563 9.67325 10.582 9.78287 10.4885 9.87477C10.3949 9.96667 10.284 10.039 10.1622 10.0876C10.0404 10.1362 9.91019 10.16 9.77908 10.1577H9.79651ZM14.3087 10.1577C14.1135 10.1577 13.9226 10.0998 13.7602 9.99131C13.5979 9.88283 13.4714 9.72865 13.3966 9.54826C13.3219 9.36786 13.3024 9.16937 13.3405 8.97786C13.3785 8.78636 13.4726 8.61045 13.6107 8.47239C13.7487 8.33432 13.9246 8.2403 14.1161 8.2022C14.3076 8.16411 14.5061 8.18366 14.6865 8.25838C14.8669 8.3331 15.0211 8.45964 15.1296 8.62199C15.238 8.78434 15.2959 8.97521 15.2959 9.17046C15.296 9.30158 15.2699 9.4314 15.2192 9.55233C15.1685 9.67325 15.0942 9.78287 15.0007 9.87477C14.9071 9.96667 14.7962 10.039 14.6744 10.0876C14.5527 10.1362 14.4224 10.16 14.2913 10.1577H14.3087Z" fill="white"/>
<path d="M19.1225 19.8086L19.0645 19.8725L19.1225 19.8086Z" fill="#2D3349"/>
<path d="M17.7182 14.1492C17.8661 14.1484 18.0102 14.1018 18.1305 14.0156C17.9913 14.112 17.823 14.1572 17.6543 14.1434L17.7182 14.1492Z" fill="#2D3349"/>
<path d="M17.6013 14.134C17.5138 14.119 17.4294 14.0895 17.3516 14.0469C17.4294 14.0895 17.5138 14.119 17.6013 14.134V14.134Z" fill="#2D3349"/>
<path d="M14.118 6.61619C13.3556 6.61482 12.6203 6.8986 12.0565 7.41178C11.6141 7.01095 11.0649 6.74715 10.4755 6.65238C9.88611 6.55762 9.28188 6.63597 8.73615 6.87792C8.19043 7.11988 7.72665 7.51504 7.40114 8.01544C7.07562 8.51583 6.90234 9.09996 6.90234 9.69692C6.90234 10.2939 7.07562 10.878 7.40114 11.3784C7.72665 11.8788 8.19043 12.274 8.73615 12.5159C9.28188 12.7579 9.88611 12.8362 10.4755 12.7415C11.0649 12.6467 11.6141 12.3829 12.0565 11.9821C12.4276 12.3159 12.8743 12.5545 13.3581 12.6773C13.8419 12.8001 14.3484 12.8033 14.8337 12.6868C15.3191 12.5702 15.7688 12.3374 16.1442 12.0083C16.5195 11.6792 16.8091 11.2638 16.9882 10.7978C17.1672 10.3319 17.2302 9.82939 17.1717 9.33366C17.1133 8.83793 16.9352 8.36385 16.6527 7.9523C16.3702 7.54075 15.9919 7.20408 15.5503 6.97131C15.1088 6.73854 14.6172 6.61667 14.118 6.61619V6.61619ZM14.118 11.9124C13.7843 11.9152 13.4542 11.8425 13.1524 11.6997C12.8507 11.5569 12.5853 11.3477 12.3759 11.0877L12.0391 10.6696L11.7022 11.0877C11.4148 11.4462 11.0231 11.7065 10.5814 11.8328C10.1396 11.959 9.66957 11.945 9.23611 11.7927C8.80266 11.6403 8.42721 11.3572 8.1616 10.9823C7.89599 10.6074 7.75333 10.1593 7.75333 9.69982C7.75333 9.24038 7.89599 8.79227 8.1616 8.41738C8.42721 8.04249 8.80266 7.75931 9.23611 7.60697C9.66957 7.45462 10.1396 7.44062 10.5814 7.56689C11.0231 7.69316 11.4148 7.95348 11.7022 8.31189L12.0391 8.73002L12.3759 8.31189C12.6099 8.02135 12.9136 7.79471 13.2588 7.65305C13.6039 7.51139 13.9793 7.45931 14.35 7.50165C14.7207 7.54399 15.0746 7.67938 15.3789 7.89522C15.6833 8.11107 15.928 8.40036 16.0905 8.7362C16.253 9.07204 16.328 9.44352 16.3084 9.8161C16.2888 10.1887 16.1753 10.5502 15.9785 10.8672C15.7817 11.1841 15.5079 11.4462 15.1826 11.6289C14.8573 11.8116 14.4911 11.9091 14.118 11.9124V11.9124Z" fill="#F2800D"/>
<path d="M9.78019 8.17969C9.58494 8.17969 9.39407 8.23759 9.23173 8.34606C9.06938 8.45454 8.94284 8.60873 8.86812 8.78912C8.7934 8.96951 8.77385 9.16801 8.81194 9.35951C8.85003 9.55102 8.94405 9.72692 9.08211 9.86499C9.22018 10.0031 9.39608 10.0971 9.58759 10.1352C9.77909 10.1733 9.9776 10.1537 10.158 10.079C10.3384 10.0043 10.4926 9.87774 10.6011 9.71539C10.7095 9.55304 10.7674 9.36217 10.7674 9.16691C10.7674 9.03727 10.7419 8.9089 10.6923 8.78912C10.6427 8.66934 10.5699 8.56051 10.4783 8.46884C10.3866 8.37717 10.2778 8.30445 10.158 8.25483C10.0382 8.20522 9.90984 8.17969 9.78019 8.17969V8.17969Z" fill="#F2800D"/>
<path d="M14.2919 8.1797C14.0967 8.1797 13.9058 8.2376 13.7434 8.34608C13.5811 8.45456 13.4546 8.60874 13.3798 8.78914C13.3051 8.96953 13.2856 9.16803 13.3237 9.35953C13.3617 9.55103 13.4558 9.72694 13.5939 9.86501C13.7319 10.0031 13.9078 10.0971 14.0993 10.1352C14.2908 10.1733 14.4893 10.1537 14.6697 10.079C14.8501 10.0043 15.0043 9.87775 15.1128 9.71541C15.2212 9.55306 15.2791 9.36219 15.2791 9.16693C15.2799 9.03707 15.2549 8.90835 15.2056 8.78823C15.1562 8.6681 15.0835 8.55896 14.9917 8.46714C14.8999 8.37531 14.7907 8.30262 14.6706 8.25328C14.5505 8.20394 14.4218 8.17893 14.2919 8.1797V8.1797Z" fill="#F2800D"/>
<path d="M8.36148 5.09971H10.5798C10.6353 5.09971 10.6885 5.07768 10.7277 5.03848C10.7669 4.99927 10.7889 4.94609 10.7889 4.89065C10.7889 4.83465 10.7671 4.78086 10.728 4.74073C10.689 4.7006 10.6358 4.67729 10.5798 4.67578H8.36148C8.30649 4.67725 8.25416 4.69974 8.21527 4.73864C8.17637 4.77753 8.15389 4.82986 8.15242 4.88484C8.15165 4.91278 8.15648 4.94059 8.16664 4.96663C8.1768 4.99267 8.19207 5.01641 8.21156 5.03644C8.23105 5.05647 8.25436 5.07239 8.28011 5.08326C8.30586 5.09413 8.33353 5.09972 8.36148 5.09971V5.09971Z" fill="#F49E25"/>
<path d="M13.4903 5.12415H15.7086C15.7641 5.12415 15.8172 5.10212 15.8565 5.06292C15.8957 5.02371 15.9177 4.97054 15.9177 4.91509C15.9177 4.85964 15.8957 4.80647 15.8565 4.76726C15.8172 4.72805 15.7641 4.70603 15.7086 4.70603V4.70603H13.4845C13.4537 4.70092 13.4222 4.70257 13.3921 4.71087C13.362 4.71917 13.3341 4.73391 13.3103 4.75408C13.2865 4.77425 13.2674 4.79936 13.2543 4.82767C13.2412 4.85598 13.2344 4.8868 13.2344 4.91799C13.2344 4.94919 13.2412 4.98001 13.2543 5.00831C13.2674 5.03662 13.2865 5.06173 13.3103 5.0819C13.3341 5.10207 13.362 5.11682 13.3921 5.12512C13.4222 5.13342 13.4537 5.13507 13.4845 5.12996L13.4903 5.12415Z" fill="#F49E25"/>
<path d="M15.2787 15.332H8.7746C8.70596 15.332 8.63802 15.3455 8.5746 15.3718C8.51119 15.3981 8.45357 15.4366 8.40504 15.4851C8.35651 15.5336 8.31801 15.5913 8.29174 15.6547C8.26547 15.7181 8.25195 15.786 8.25195 15.8547C8.25195 15.9233 8.26547 15.9913 8.29174 16.0547C8.31801 16.1181 8.35651 16.1757 8.40504 16.2243C8.45357 16.2728 8.51119 16.3113 8.5746 16.3375C8.63802 16.3638 8.70596 16.3773 8.7746 16.3773H15.2787C15.4173 16.3773 15.5502 16.3223 15.6483 16.2243C15.7463 16.1262 15.8013 15.9933 15.8013 15.8547C15.8013 15.7161 15.7463 15.5831 15.6483 15.4851C15.5502 15.3871 15.4173 15.332 15.2787 15.332Z" fill="#F2800D"/>
<path d="M19.0415 19.8537L19.0995 19.7898C18.9179 19.6798 18.7647 19.5286 18.6524 19.3485C16.9932 20.8545 14.8709 21.7512 12.6345 21.8913C10.3981 22.0314 8.18059 21.4065 6.34639 20.1193C4.51218 18.8322 3.17045 16.9593 2.54169 14.8085C1.91292 12.6578 2.03454 10.3571 2.88656 8.28459C3.73858 6.2121 5.27031 4.49113 7.23 3.40451C9.18969 2.31789 11.4607 1.93028 13.6699 2.30538C15.8791 2.68047 17.8949 3.79597 19.3861 5.46852C20.8773 7.14107 21.7552 9.27117 21.8754 11.5087C22.2907 11.7875 22.6478 12.1445 22.9265 12.5598C22.9265 12.3856 22.9265 12.2114 22.9265 12.0372C22.9341 9.57682 22.1122 7.1857 20.5935 5.24997C19.0748 3.31425 16.948 1.94693 14.5565 1.36882C12.165 0.790706 9.64843 1.03556 7.41323 2.06383C5.17803 3.0921 3.35466 4.84377 2.23759 7.03594C1.12052 9.22812 0.774964 11.7328 1.25672 14.1456C1.73847 16.5583 3.01943 18.7383 4.8927 20.3334C6.76598 21.9285 9.12222 22.8456 11.5809 22.9366C14.0396 23.0277 16.4572 22.2873 18.4433 20.8351C18.4649 20.6377 18.5296 20.4474 18.633 20.2778C18.7364 20.1081 18.8759 19.9634 19.0415 19.8537V19.8537Z" fill="#F2800D"/>
<path d="M18.1831 13.9805L18.1309 14.0153L18.1831 13.9805Z" fill="#2D3349"/>
<path d="M19.0586 20.9544V21.2273C19.0586 21.3234 19.0775 21.4186 19.1143 21.5073C19.1511 21.5961 19.205 21.6768 19.2729 21.7447C19.3409 21.8127 19.4215 21.8666 19.5103 21.9033C19.5991 21.9401 19.6942 21.959 19.7903 21.959C19.8856 21.9591 19.9799 21.94 20.0677 21.9031C20.1556 21.8661 20.2351 21.8119 20.3016 21.7437C20.3682 21.6755 20.4204 21.5947 20.4553 21.506C20.4902 21.4173 20.5069 21.3226 20.5046 21.2273V20.9544C20.5054 20.8581 20.487 20.7626 20.4505 20.6735C20.414 20.5843 20.3601 20.5034 20.292 20.4353C20.2239 20.3672 20.1429 20.3133 20.0538 20.2768C19.9647 20.2403 19.8692 20.2219 19.7729 20.2227C19.5828 20.2301 19.4028 20.3101 19.2699 20.4462C19.1371 20.5823 19.0614 20.7642 19.0586 20.9544V20.9544Z" fill="#F2800D"/>
<path d="M19.792 11.4845C19.2445 11.4861 18.707 11.6305 18.2324 11.9035C17.7578 12.1764 17.3626 12.5684 17.0858 13.0408C17.0365 13.1235 17.0039 13.2151 16.9901 13.3104C16.9762 13.4057 16.9813 13.5028 17.005 13.5962C17.0287 13.6895 17.0707 13.7772 17.1284 13.8543C17.1861 13.9314 17.2585 13.9964 17.3413 14.0454C17.4192 14.0881 17.5036 14.1175 17.5911 14.1326H17.6549C17.8237 14.1463 17.992 14.1012 18.1311 14.0048L18.1834 13.9699C18.2519 13.9118 18.3107 13.8432 18.3576 13.7667C18.5036 13.5162 18.7131 13.3085 18.9649 13.1648C19.2168 13.021 19.502 12.9462 19.792 12.9479C20.2356 12.9479 20.661 13.1241 20.9746 13.4377C21.2883 13.7514 21.4645 14.1768 21.4645 14.6204C21.4645 15.0639 21.2883 15.4893 20.9746 15.803C20.661 16.1166 20.2356 16.2928 19.792 16.2928C19.5988 16.2987 19.4152 16.3785 19.2791 16.5157C19.143 16.6529 19.0647 16.8371 19.0603 17.0304C19.0603 17.0304 19.0603 17.0304 19.0603 17.0594C19.0603 17.0884 19.0603 17.0594 19.0603 17.0594V18.6157C19.0603 18.8098 19.1374 18.9959 19.2746 19.1331C19.4118 19.2703 19.5979 19.3474 19.792 19.3474C19.9785 19.3475 20.1576 19.2746 20.291 19.1444C20.4245 19.0142 20.5017 18.837 20.5063 18.6506V17.675C21.2581 17.5004 21.9192 17.0547 22.363 16.4232C22.8068 15.7917 23.002 15.0187 22.9114 14.2522C22.8208 13.4857 22.4507 12.7795 21.8719 12.2688C21.2932 11.7582 20.5464 11.4789 19.7746 11.4845H19.792Z" fill="#F2800D"/>
<path d="M12.0384 0C10.4575 -2.35573e-08 8.89205 0.311382 7.43148 0.916367C5.97092 1.52135 4.64383 2.40809 3.52596 3.52596C2.4081 4.64382 1.52135 5.97092 0.916364 7.43149C0.311379 8.89205 0 10.4575 0 12.0384C0 13.6193 0.311379 15.1847 0.916364 16.6453C1.52135 18.1058 2.4081 19.4329 3.52596 20.5508C4.64383 21.6687 5.97092 22.5554 7.43148 23.1604C8.89205 23.7654 10.4575 24.0767 12.0384 24.0767C14.4213 24.0771 16.7495 23.363 18.7225 22.0268C18.8918 22.2499 19.1267 22.4144 19.3943 22.4972C19.6618 22.5801 19.9486 22.5771 20.2143 22.4887C20.4801 22.4004 20.7116 22.231 20.8762 22.0045C21.0409 21.7779 21.1305 21.5055 21.1325 21.2254V20.9525C21.1357 20.7181 21.0766 20.4871 20.9613 20.2831C20.846 20.079 20.6787 19.9092 20.4763 19.791C20.6791 19.6733 20.8468 19.5036 20.9621 19.2994C21.0775 19.0953 21.1363 18.864 21.1325 18.6296V18.1069C21.9196 17.8073 22.5826 17.2507 23.014 16.5274V16.5274C23.6598 15.3086 24.0156 13.9572 24.0535 12.5784V12.5378C24.0535 12.3752 24.0535 12.2068 24.0535 12.0384C24.0504 8.85056 22.7843 5.79384 20.5324 3.53754C18.2804 1.28124 15.2262 0.00921631 12.0384 0V0ZM20.5053 20.9525V21.2254C20.5077 21.3221 20.4904 21.4184 20.4545 21.5082C20.4186 21.5981 20.3647 21.6797 20.2963 21.7481C20.2279 21.8165 20.1463 21.8704 20.0564 21.9063C19.9666 21.9422 19.8703 21.9595 19.7736 21.9571C19.6616 21.9565 19.5512 21.9306 19.4507 21.8813C19.3501 21.832 19.262 21.7607 19.1929 21.6726C19.4048 21.4844 19.5376 21.223 19.5645 20.9408C19.5683 20.909 19.579 20.8784 19.5961 20.8513C19.6132 20.8241 19.6361 20.8012 19.6632 20.7841L19.7968 20.6737L19.8433 20.6214C19.9439 20.5304 20.0249 20.4197 20.0814 20.2962C20.2077 20.3532 20.3149 20.4455 20.3901 20.5619C20.4653 20.6783 20.5053 20.8139 20.5053 20.9525V20.9525ZM20.5053 17.6772V18.6528C20.5077 18.7904 20.47 18.9257 20.3968 19.0423C20.3236 19.1588 20.218 19.2515 20.093 19.309C20.0029 19.1097 19.8552 18.9418 19.6691 18.827C19.6403 18.81 19.6163 18.7861 19.5994 18.7573C19.462 18.543 19.2579 18.3798 19.0187 18.2928V17.0965C19.0187 17.0965 19.0187 17.0965 19.0187 17.0674C19.023 16.8742 19.1013 16.69 19.2375 16.5528C19.3736 16.4156 19.5572 16.3358 19.7504 16.3299C20.1939 16.3299 20.6193 16.1537 20.933 15.8401C21.2466 15.5264 21.4228 15.101 21.4228 14.6574C21.4228 14.2139 21.2466 13.7885 20.933 13.4748C20.6193 13.1612 20.1939 12.9849 19.7504 12.9849C19.4717 12.9855 19.1978 13.0566 18.954 13.1916C18.7103 13.3267 18.5048 13.5213 18.3566 13.7573C18.3097 13.8339 18.2509 13.9025 18.1824 13.9606L18.1302 13.9954C18.0099 14.0816 17.8658 14.1282 17.7178 14.129H17.6017C17.5142 14.114 17.4298 14.0845 17.352 14.0419C17.2691 13.9928 17.1967 13.9279 17.139 13.8508C17.0813 13.7737 17.0394 13.6859 17.0156 13.5926C16.9919 13.4993 16.9868 13.4021 17.0007 13.3068C17.0145 13.2115 17.0471 13.1199 17.0965 13.0372C17.4553 12.4172 18.0165 11.9397 18.686 11.6848C19.3554 11.4299 20.0922 11.4133 20.7724 11.6377C20.7928 11.7989 20.8467 11.954 20.9307 12.093C21.0147 12.2321 21.127 12.3519 21.2602 12.4449C21.5482 12.6384 21.7949 12.8871 21.9861 13.1766C22.0797 13.3105 22.2005 13.4232 22.3406 13.5072C22.4807 13.5913 22.637 13.6448 22.7992 13.6644C22.8948 13.9728 22.9438 14.2939 22.9443 14.6168C22.9461 15.3281 22.7054 16.0189 22.2621 16.5751C21.8187 17.1314 21.1991 17.5201 20.5053 17.6772V17.6772ZM14.1174 12.7759C13.355 12.7773 12.6196 12.4935 12.0558 11.9803C11.6134 12.3811 11.0642 12.6449 10.4748 12.7397C9.88543 12.8345 9.2812 12.7561 8.73547 12.5142C8.18974 12.2722 7.72597 11.877 7.40045 11.3766C7.07494 10.8762 6.90166 10.2921 6.90166 9.69516C6.90166 9.0982 7.07494 8.51407 7.40045 8.01368C7.72597 7.51328 8.18974 7.11812 8.73547 6.87616C9.2812 6.63421 9.88543 6.55586 10.4748 6.65063C11.0642 6.74539 11.6134 7.00919 12.0558 7.41002C12.4269 7.07615 12.8736 6.83755 13.3574 6.71478C13.8412 6.59201 14.3477 6.58876 14.833 6.70531C15.3184 6.82185 15.7681 7.0547 16.1435 7.38378C16.5188 7.71285 16.8085 8.12827 16.9875 8.59423C17.1665 9.06019 17.2295 9.56269 17.1711 10.0584C17.1126 10.5542 16.9345 11.0282 16.652 11.4398C16.3695 11.8513 15.9912 12.188 15.5497 12.4208C15.1081 12.6535 14.6165 12.7754 14.1174 12.7759V12.7759ZM15.8595 15.8537C15.8595 15.9923 15.8045 16.1253 15.7064 16.2233C15.6084 16.3213 15.4755 16.3764 15.3369 16.3764H8.77471C8.70607 16.3764 8.63812 16.3628 8.57471 16.3366C8.5113 16.3103 8.45368 16.2718 8.40514 16.2233C8.35661 16.1748 8.31811 16.1171 8.29185 16.0537C8.26558 15.9903 8.25206 15.9224 8.25206 15.8537C8.25206 15.7851 8.26558 15.7171 8.29185 15.6537C8.31811 15.5903 8.35661 15.5327 8.40514 15.4841C8.45368 15.4356 8.5113 15.3971 8.57471 15.3709C8.63812 15.3446 8.70607 15.3311 8.77471 15.3311H15.2788C15.3489 15.3287 15.4187 15.3405 15.4842 15.3657C15.5496 15.391 15.6093 15.4291 15.6597 15.4778C15.7101 15.5266 15.7501 15.585 15.7775 15.6496C15.8048 15.7142 15.8189 15.7836 15.8189 15.8537H15.8595ZM8.19398 4.88968C8.19545 4.8347 8.21795 4.78237 8.25684 4.74348C8.29574 4.70458 8.34807 4.68209 8.40305 4.68062V4.68062H10.6214C10.6774 4.68213 10.7306 4.70544 10.7696 4.74557C10.8087 4.7857 10.8305 4.8395 10.8305 4.89549C10.8305 4.95094 10.8084 5.00411 10.7692 5.04332C10.73 5.08252 10.6769 5.10455 10.6214 5.10455V5.10455H8.40305C8.37191 5.11076 8.33976 5.10979 8.30905 5.10173C8.27834 5.09366 8.24988 5.0787 8.22581 5.05799C8.20174 5.03728 8.1827 5.01137 8.17015 4.9822C8.15759 4.95304 8.15185 4.9214 8.15335 4.88968H8.19398ZM13.316 4.88968C13.3159 4.83369 13.3378 4.7799 13.3768 4.73976C13.4159 4.69963 13.4691 4.67633 13.525 4.67481H15.7492C15.7766 4.67481 15.8038 4.68022 15.8292 4.69073C15.8545 4.70123 15.8776 4.71663 15.897 4.73605C15.9164 4.75546 15.9318 4.77851 15.9423 4.80387C15.9528 4.82923 15.9583 4.85642 15.9583 4.88388C15.9583 4.91133 15.9528 4.93851 15.9423 4.96388C15.9318 4.98924 15.9164 5.01229 15.897 5.0317C15.8776 5.05112 15.8545 5.06651 15.8292 5.07702C15.8038 5.08753 15.7766 5.09294 15.7492 5.09294H13.5308C13.5021 5.09877 13.4726 5.09868 13.4439 5.09268C13.4153 5.08668 13.3882 5.07489 13.3643 5.05803C13.3403 5.04117 13.3201 5.0196 13.3048 4.99465C13.2895 4.9697 13.2795 4.94188 13.2753 4.91291L13.316 4.88968ZM22.9676 12.5378C22.6888 12.1225 22.3318 11.7655 21.9165 11.4867C21.7962 9.24913 20.9184 7.11903 19.4272 5.44647C17.936 3.77392 15.9201 2.65843 13.711 2.28333C11.5018 1.90823 9.23075 2.29585 7.27106 3.38247C5.31137 4.46909 3.77963 6.19006 2.92761 8.26255C2.07559 10.335 1.95397 12.6357 2.58273 14.7865C3.2115 16.9372 4.55325 18.8101 6.38745 20.0973C8.22165 21.3845 10.4392 22.0094 12.6756 21.8693C14.912 21.7292 17.0342 20.8324 18.6935 19.3264C18.8058 19.5066 18.959 19.6578 19.1406 19.7678L19.0825 19.8317C18.9201 19.9431 18.784 20.0887 18.6837 20.2582C18.5834 20.4277 18.5213 20.6171 18.5018 20.8131C16.8775 22.0152 14.9508 22.7419 12.9372 22.9119C10.9235 23.0818 8.90231 22.6884 7.09946 21.7755C5.29661 20.8626 3.78319 19.4663 2.72839 17.7427C1.6736 16.019 1.119 14.0359 1.1266 12.0151C1.09306 10.5614 1.35043 9.1156 1.88357 7.76272C2.41672 6.40985 3.2149 5.17718 4.2312 4.13716C5.2475 3.09713 6.46143 2.27074 7.80165 1.70652C9.14187 1.14231 10.5813 0.851661 12.0355 0.851661C13.4896 0.851661 14.9291 1.14231 16.2693 1.70652C17.6095 2.27074 18.8234 3.09713 19.8397 4.13716C20.856 5.17718 21.6542 6.40985 22.1874 7.76272C22.7205 9.1156 22.9779 10.5614 22.9443 12.0151C22.9443 12.2126 22.9327 12.3868 22.9269 12.561L22.9676 12.5378Z" fill="white"/>
<path d="M12.0384 0C10.4575 -2.35573e-08 8.89205 0.311382 7.43148 0.916367C5.97092 1.52135 4.64383 2.40809 3.52596 3.52596C2.4081 4.64382 1.52135 5.97092 0.916364 7.43149C0.311379 8.89205 0 10.4575 0 12.0384C0 13.6193 0.311379 15.1847 0.916364 16.6453C1.52135 18.1058 2.4081 19.4329 3.52596 20.5508C4.64383 21.6687 5.97092 22.5554 7.43148 23.1604C8.89205 23.7654 10.4575 24.0767 12.0384 24.0767C14.4213 24.0771 16.7495 23.363 18.7225 22.0268C18.8918 22.2499 19.1267 22.4144 19.3943 22.4972C19.6618 22.5801 19.9486 22.5771 20.2143 22.4887C20.4801 22.4004 20.7116 22.231 20.8762 22.0045C21.0409 21.7779 21.1305 21.5055 21.1325 21.2254V20.9525C21.1357 20.7181 21.0766 20.4871 20.9613 20.2831C20.846 20.079 20.6787 19.9092 20.4763 19.791C20.6791 19.6733 20.8468 19.5036 20.9621 19.2994C21.0775 19.0953 21.1363 18.864 21.1325 18.6296V18.1069C21.9196 17.8073 22.5826 17.2507 23.014 16.5274V16.5274C23.6598 15.3086 24.0156 13.9572 24.0535 12.5784V12.5378C24.0535 12.3752 24.0535 12.2068 24.0535 12.0384C24.0504 8.85056 22.7843 5.79384 20.5324 3.53754C18.2804 1.28124 15.2262 0.00921631 12.0384 0V0ZM20.5053 20.9525V21.2254C20.5077 21.3221 20.4904 21.4184 20.4545 21.5082C20.4186 21.5981 20.3647 21.6797 20.2963 21.7481C20.2279 21.8165 20.1463 21.8704 20.0564 21.9063C19.9666 21.9422 19.8703 21.9595 19.7736 21.9571C19.6616 21.9565 19.5512 21.9306 19.4507 21.8813C19.3501 21.832 19.262 21.7607 19.1929 21.6726C19.4048 21.4844 19.5376 21.223 19.5645 20.9408C19.5683 20.909 19.579 20.8784 19.5961 20.8513C19.6132 20.8241 19.6361 20.8012 19.6632 20.7841L19.7968 20.6737L19.8433 20.6214C19.9439 20.5304 20.0249 20.4197 20.0814 20.2962C20.2077 20.3532 20.3149 20.4455 20.3901 20.5619C20.4653 20.6783 20.5053 20.8139 20.5053 20.9525V20.9525ZM20.5053 17.6772V18.6528C20.5077 18.7904 20.47 18.9257 20.3968 19.0423C20.3236 19.1588 20.218 19.2515 20.093 19.309C20.0029 19.1097 19.8552 18.9418 19.6691 18.827C19.6403 18.81 19.6163 18.7861 19.5994 18.7573C19.462 18.543 19.2579 18.3798 19.0187 18.2928V17.0965C19.0187 17.0965 19.0187 17.0965 19.0187 17.0674C19.023 16.8742 19.1013 16.69 19.2375 16.5528C19.3736 16.4156 19.5572 16.3358 19.7504 16.3299C20.1939 16.3299 20.6193 16.1537 20.933 15.8401C21.2466 15.5264 21.4228 15.101 21.4228 14.6574C21.4228 14.2139 21.2466 13.7885 20.933 13.4748C20.6193 13.1612 20.1939 12.9849 19.7504 12.9849C19.4717 12.9855 19.1978 13.0566 18.954 13.1916C18.7103 13.3267 18.5048 13.5213 18.3566 13.7573C18.3097 13.8339 18.2509 13.9025 18.1824 13.9606L18.1302 13.9954C18.0099 14.0816 17.8658 14.1282 17.7178 14.129H17.6017C17.5142 14.114 17.4298 14.0845 17.352 14.0419C17.2691 13.9928 17.1967 13.9279 17.139 13.8508C17.0813 13.7737 17.0394 13.6859 17.0156 13.5926C16.9919 13.4993 16.9868 13.4021 17.0007 13.3068C17.0145 13.2115 17.0471 13.1199 17.0965 13.0372C17.4553 12.4172 18.0165 11.9397 18.686 11.6848C19.3554 11.4299 20.0922 11.4133 20.7724 11.6377C20.7928 11.7989 20.8467 11.954 20.9307 12.093C21.0147 12.2321 21.127 12.3519 21.2602 12.4449C21.5482 12.6384 21.7949 12.8871 21.9861 13.1766C22.0797 13.3105 22.2005 13.4232 22.3406 13.5072C22.4807 13.5913 22.637 13.6448 22.7992 13.6644C22.8948 13.9728 22.9438 14.2939 22.9443 14.6168C22.9461 15.3281 22.7054 16.0189 22.2621 16.5751C21.8187 17.1314 21.1991 17.5201 20.5053 17.6772V17.6772ZM14.1174 12.7759C13.355 12.7773 12.6196 12.4935 12.0558 11.9803C11.6134 12.3811 11.0642 12.6449 10.4748 12.7397C9.88543 12.8345 9.2812 12.7561 8.73547 12.5142C8.18974 12.2722 7.72597 11.877 7.40045 11.3766C7.07494 10.8762 6.90166 10.2921 6.90166 9.69516C6.90166 9.0982 7.07494 8.51407 7.40045 8.01368C7.72597 7.51328 8.18974 7.11812 8.73547 6.87616C9.2812 6.63421 9.88543 6.55586 10.4748 6.65063C11.0642 6.74539 11.6134 7.00919 12.0558 7.41002C12.4269 7.07615 12.8736 6.83755 13.3574 6.71478C13.8412 6.59201 14.3477 6.58876 14.833 6.70531C15.3184 6.82185 15.7681 7.0547 16.1435 7.38378C16.5188 7.71285 16.8085 8.12827 16.9875 8.59423C17.1665 9.06019 17.2295 9.56269 17.1711 10.0584C17.1126 10.5542 16.9345 11.0282 16.652 11.4398C16.3695 11.8513 15.9912 12.188 15.5497 12.4208C15.1081 12.6535 14.6165 12.7754 14.1174 12.7759V12.7759ZM15.8595 15.8537C15.8595 15.9923 15.8045 16.1253 15.7064 16.2233C15.6084 16.3213 15.4755 16.3764 15.3369 16.3764H8.77471C8.70607 16.3764 8.63812 16.3628 8.57471 16.3366C8.5113 16.3103 8.45368 16.2718 8.40514 16.2233C8.35661 16.1748 8.31811 16.1171 8.29185 16.0537C8.26558 15.9903 8.25206 15.9224 8.25206 15.8537C8.25206 15.7851 8.26558 15.7171 8.29185 15.6537C8.31811 15.5903 8.35661 15.5327 8.40514 15.4841C8.45368 15.4356 8.5113 15.3971 8.57471 15.3709C8.63812 15.3446 8.70607 15.3311 8.77471 15.3311H15.2788C15.3489 15.3287 15.4187 15.3405 15.4842 15.3657C15.5496 15.391 15.6093 15.4291 15.6597 15.4778C15.7101 15.5266 15.7501 15.585 15.7775 15.6496C15.8048 15.7142 15.8189 15.7836 15.8189 15.8537H15.8595ZM8.19398 4.88968C8.19545 4.8347 8.21795 4.78237 8.25684 4.74348C8.29574 4.70458 8.34807 4.68209 8.40305 4.68062V4.68062H10.6214C10.6774 4.68213 10.7306 4.70544 10.7696 4.74557C10.8087 4.7857 10.8305 4.8395 10.8305 4.89549C10.8305 4.95094 10.8084 5.00411 10.7692 5.04332C10.73 5.08252 10.6769 5.10455 10.6214 5.10455V5.10455H8.40305C8.37191 5.11076 8.33976 5.10979 8.30905 5.10173C8.27834 5.09366 8.24988 5.0787 8.22581 5.05799C8.20174 5.03728 8.1827 5.01137 8.17015 4.9822C8.15759 4.95304 8.15185 4.9214 8.15335 4.88968H8.19398ZM13.316 4.88968C13.3159 4.83369 13.3378 4.7799 13.3768 4.73976C13.4159 4.69963 13.4691 4.67633 13.525 4.67481H15.7492C15.7766 4.67481 15.8038 4.68022 15.8292 4.69073C15.8545 4.70123 15.8776 4.71663 15.897 4.73605C15.9164 4.75546 15.9318 4.77851 15.9423 4.80387C15.9528 4.82923 15.9583 4.85642 15.9583 4.88388C15.9583 4.91133 15.9528 4.93851 15.9423 4.96388C15.9318 4.98924 15.9164 5.01229 15.897 5.0317C15.8776 5.05112 15.8545 5.06651 15.8292 5.07702C15.8038 5.08753 15.7766 5.09294 15.7492 5.09294H13.5308C13.5021 5.09877 13.4726 5.09868 13.4439 5.09268C13.4153 5.08668 13.3882 5.07489 13.3643 5.05803C13.3403 5.04117 13.3201 5.0196 13.3048 4.99465C13.2895 4.9697 13.2795 4.94188 13.2753 4.91291L13.316 4.88968ZM22.9676 12.5378C22.6888 12.1225 22.3318 11.7655 21.9165 11.4867C21.7962 9.24913 20.9184 7.11903 19.4272 5.44647C17.936 3.77392 15.9201 2.65843 13.711 2.28333C11.5018 1.90823 9.23075 2.29585 7.27106 3.38247C5.31137 4.46909 3.77963 6.19006 2.92761 8.26255C2.07559 10.335 1.95397 12.6357 2.58273 14.7865C3.2115 16.9372 4.55325 18.8101 6.38745 20.0973C8.22165 21.3845 10.4392 22.0094 12.6756 21.8693C14.912 21.7292 17.0342 20.8324 18.6935 19.3264C18.8058 19.5066 18.959 19.6578 19.1406 19.7678L19.0825 19.8317C18.9201 19.9431 18.784 20.0887 18.6837 20.2582C18.5834 20.4277 18.5213 20.6171 18.5018 20.8131C16.8775 22.0152 14.9508 22.7419 12.9372 22.9119C10.9235 23.0818 8.90231 22.6884 7.09946 21.7755C5.29661 20.8626 3.78319 19.4663 2.72839 17.7427C1.6736 16.019 1.119 14.0359 1.1266 12.0151C1.09306 10.5614 1.35043 9.1156 1.88357 7.76272C2.41672 6.40985 3.2149 5.17718 4.2312 4.13716C5.2475 3.09713 6.46143 2.27074 7.80165 1.70652C9.14187 1.14231 10.5813 0.851661 12.0355 0.851661C13.4896 0.851661 14.9291 1.14231 16.2693 1.70652C17.6095 2.27074 18.8234 3.09713 19.8397 4.13716C20.856 5.17718 21.6542 6.40985 22.1874 7.76272C22.7205 9.1156 22.9779 10.5614 22.9443 12.0151C22.9443 12.2126 22.9327 12.3868 22.9269 12.561L22.9676 12.5378Z" fill="white"/>
<defs>
<linearGradient id="paint0_linear_181_485" x1="13.0266" y1="0.0319331" x2="13.6596" y2="28.557" gradientUnits="userSpaceOnUse">
<stop stop-color="#828282"/>
<stop offset="0.3" stop-color="#9A9A9A"/>
<stop offset="0.67" stop-color="#B1B1B1"/>
<stop offset="0.91" stop-color="#B9B9B9"/>
<stop offset="0.92" stop-color="#BABABA"/>
<stop offset="1" stop-color="#BFBFBF"/>
</linearGradient>
</defs>
</svg>
