<svg width="24" height="24" viewBox="0 0 24 24" fill="none" xmlns="http://www.w3.org/2000/svg">
<path d="M2 14V18C2 20.2091 3.79086 22 6 22H18C20.2091 22 22 20.2091 22 18V12V9.24264C22 8.44699 21.6839 7.68393 21.1213 7.12132L16.8787 2.87868C16.3161 2.31607 15.553 2 14.7574 2H12H6C3.79086 2 2 3.79086 2 6V10" stroke="#FFA959" stroke-width="2" stroke-linecap="round"/>
<path d="M17 18C17 18.5523 17.4477 19 18 19C18.5523 19 19 18.5523 19 18H17ZM8 14H16V12H8V14ZM17 15V18H19V15H17ZM7 22V15H5V22H7ZM16 14C16.5523 14 17 14.4477 17 15H19C19 13.3431 17.6569 12 16 12V14ZM8 12C6.34315 12 5 13.3431 5 15H7C7 14.4477 7.44772 14 8 14V12Z" fill="#FFA959"/>
<path d="M7 5.5C7 4.94772 7.44772 4.5 8 4.5C8.55228 4.5 9 4.94772 9 5.5H7ZM9 6H15V8H9V6ZM9 5.5V6H7V5.5H9ZM15 6V2H17V6H15ZM15 6V6H17C17 7.10457 16.1046 8 15 8V6ZM9 8C7.89543 8 7 7.10457 7 6H9V6V8Z" fill="#FFA959"/>
</svg>
