<svg width="26" height="24" viewBox="0 0 26 24" fill="none" xmlns="http://www.w3.org/2000/svg">
<path d="M5.58576 9.95715L8.53961 9.37798C9.08914 9.27023 9.56834 8.93702 9.86066 8.45937L11.6653 5.5107L12.2228 4.59981C13.0029 3.32517 14.8544 3.32517 15.6345 4.59981L17.9966 8.45937C18.289 8.93702 18.7682 9.27023 19.3177 9.37798L22.2716 9.95715C23.8513 10.2669 24.4364 12.221 23.2869 13.3479L20.7413 15.8435C20.2568 16.3185 20.0462 17.0067 20.1818 17.6715L20.6599 20.0153C20.9919 21.6424 19.3111 22.9419 17.82 22.211L14.809 20.735C14.2537 20.4628 13.6037 20.4628 13.0484 20.735L10.0373 22.211C8.54625 22.9419 6.86545 21.6424 7.19737 20.0153L7.67553 17.6715C7.81115 17.0067 7.6005 16.3185 7.11602 15.8435L4.57045 13.3479C3.42091 12.221 4.00602 10.2669 5.58576 9.95715Z" fill="#B2B6F4"/>
<path d="M6.58598 7.07482L3.63213 7.65399C1.65746 8.04117 0.92607 10.4838 2.363 11.8925L4.90857 14.3881C5.27193 14.7443 5.42991 15.2604 5.3282 15.759L4.85004 18.1029C4.43513 20.1367 6.53613 21.761 8.39996 20.8474L11.411 19.3715C11.8275 19.1673 12.315 19.1673 12.7315 19.3715L15.7425 20.8474C17.6063 21.761 19.7073 20.1367 19.2924 18.1029L18.8143 15.759C18.7126 15.2604 18.8705 14.7443 19.2339 14.3881L21.7795 11.8925C23.2164 10.4838 22.485 8.04117 20.5103 7.65399L17.5565 7.07482C17.1443 6.99401 16.7849 6.7441 16.5657 6.38587L14.2036 2.5263C13.2285 0.93301 10.914 0.933009 9.93889 2.5263L9.38141 3.43719L7.57677 6.38587C7.35753 6.7441 6.99813 6.99401 6.58598 7.07482Z" fill="#F9DF70" stroke="#763B28" stroke-linecap="round" stroke-linejoin="round"/>
<path fill-rule="evenodd" clip-rule="evenodd" d="M5.50391 19.5033C5.96761 20.418 7.11913 20.9192 8.17543 20.4014L11.1865 18.9255C11.7418 18.6533 12.3918 18.6533 12.9471 18.9255L15.9581 20.4014C17.4492 21.1323 19.13 19.8328 18.7981 18.2058L18.3199 15.8619C18.1843 15.1972 18.3949 14.509 18.8794 14.034L21.425 11.5384C22.4504 10.5331 22.0956 8.86975 20.8858 8.30237C21.251 9.03263 21.1716 9.9736 20.4998 10.6321L17.9543 13.1277C17.4698 13.6027 17.2592 14.2909 17.3948 14.9557L17.8729 17.2995C18.2049 18.9266 16.5241 20.2261 15.033 19.4952L12.0219 18.0192C11.4666 17.747 10.8167 17.747 10.2614 18.0192L7.2503 19.4952C6.65117 19.7889 6.02142 19.7547 5.50391 19.5033ZM16.0424 6.49892L13.7727 2.79026C13.5597 2.44223 13.2668 2.18923 12.9376 2.03125L15.2096 5.74357C15.4112 6.07284 15.7015 6.33347 16.0424 6.49892Z" fill="#E7C63C"/>
<path d="M2.97656 9.77705L8.24944 8.77345L11.1788 3.55469" stroke="white" stroke-linecap="round" stroke-linejoin="round"/>
</svg>
