<svg width="25" height="25" viewBox="0 0 25 25" fill="none" xmlns="http://www.w3.org/2000/svg">
<path d="M2.71484 4.14338C2.71484 3.35442 3.35442 2.71484 4.14338 2.71484H9.85755C10.6465 2.71484 11.2861 3.35442 11.2861 4.14338V9.85755C11.2861 10.6465 10.6465 11.2861 9.85755 11.2861H4.14338C3.35442 11.2861 2.71484 10.6465 2.71484 9.85755V4.14338Z" fill="#B2B6F4"/>
<path d="M2.71484 17.8582C2.71484 17.0693 3.35442 16.4297 4.14338 16.4297H9.85755C10.6465 16.4297 11.2861 17.0693 11.2861 17.8582V23.5724C11.2861 24.3614 10.6465 25.0009 9.85755 25.0009H4.14338C3.35442 25.0009 2.71484 24.3614 2.71484 23.5724V17.8582Z" fill="#B2B6F4"/>
<path d="M16.4277 4.14338C16.4277 3.35442 17.0673 2.71484 17.8563 2.71484H23.5704C24.3594 2.71484 24.999 3.35442 24.999 4.14338V9.85755C24.999 10.6465 24.3594 11.2861 23.5704 11.2861H17.8563C17.0673 11.2861 16.4277 10.6465 16.4277 9.85755V4.14338Z" fill="#B2B6F4"/>
<path d="M16.4277 17.8582C16.4277 17.0693 17.0673 16.4297 17.8563 16.4297H23.5704C24.3594 16.4297 24.999 17.0693 24.999 17.8582V23.5724C24.999 24.3614 24.3594 25.0009 23.5704 25.0009H17.8563C17.0673 25.0009 16.4277 24.3614 16.4277 23.5724V17.8582Z" fill="#B2B6F4"/>
<path d="M8.1427 0.5H2.42854C1.36344 0.5 0.5 1.36344 0.5 2.42854V8.1427C0.5 9.20781 1.36344 10.0712 2.42854 10.0712H8.1427C9.20781 10.0712 10.0712 9.20781 10.0712 8.1427V2.42854C10.0712 1.36344 9.20781 0.5 8.1427 0.5Z" fill="#94F0D7" stroke="#763B28" stroke-linecap="round" stroke-linejoin="round"/>
<path d="M8.1427 14.2148H2.42854C1.36344 14.2148 0.5 15.0783 0.5 16.1434V21.8575C0.5 22.9227 1.36344 23.7861 2.42854 23.7861H8.1427C9.20781 23.7861 10.0712 22.9227 10.0712 21.8575V16.1434C10.0712 15.0783 9.20781 14.2148 8.1427 14.2148Z" fill="#94F0D7" stroke="#763B28" stroke-linecap="round" stroke-linejoin="round"/>
<path d="M21.8575 0.5H16.1434C15.0783 0.5 14.2148 1.36344 14.2148 2.42854V8.1427C14.2148 9.20781 15.0783 10.0712 16.1434 10.0712H21.8575C22.9227 10.0712 23.7861 9.20781 23.7861 8.1427V2.42854C23.7861 1.36344 22.9227 0.5 21.8575 0.5Z" fill="#94F0D7" stroke="#763B28" stroke-linecap="round" stroke-linejoin="round"/>
<path d="M21.8575 14.2148H16.1434C15.0783 14.2148 14.2148 15.0783 14.2148 16.1434V21.8575C14.2148 22.9227 15.0783 23.7861 16.1434 23.7861H21.8575C22.9227 23.7861 23.7861 22.9227 23.7861 21.8575V16.1434C23.7861 15.0783 22.9227 14.2148 21.8575 14.2148Z" fill="#94F0D7" stroke="#763B28" stroke-linecap="round" stroke-linejoin="round"/>
<path fill-rule="evenodd" clip-rule="evenodd" d="M1.08398 8.63072C1.23608 8.68591 1.4002 8.71601 1.57136 8.71601H7.28552C8.07448 8.71601 8.71406 8.07643 8.71406 7.28747V1.57331C8.71406 1.40215 8.68396 1.23803 8.62877 1.08594C9.17775 1.28517 9.56993 1.81138 9.56993 2.42918V8.14335C9.56993 8.93231 8.93035 9.57189 8.14139 9.57189H2.42723C1.80942 9.57189 1.28322 9.17971 1.08398 8.63072ZM1.08398 22.3447C1.23608 22.3999 1.4002 22.43 1.57136 22.43H7.28552C8.07448 22.43 8.71406 21.7904 8.71406 21.0015V15.2873C8.71406 15.1161 8.68396 14.952 8.62877 14.7999C9.17775 14.9992 9.56993 15.5254 9.56993 16.1432V21.8573C9.56993 22.6463 8.93035 23.2859 8.14139 23.2859H2.42723C1.80942 23.2859 1.28322 22.8937 1.08398 22.3447ZM14.798 8.63072C14.9501 8.68591 15.1142 8.71601 15.2853 8.71601H20.9995C21.7885 8.71601 22.4281 8.07643 22.4281 7.28747V1.57331C22.4281 1.40215 22.398 1.23803 22.3428 1.08594C22.8917 1.28517 23.2839 1.81138 23.2839 2.42918V8.14335C23.2839 8.93231 22.6443 9.57189 21.8554 9.57189H16.1412C15.5234 9.57189 14.9972 9.17971 14.798 8.63072ZM14.798 22.3447C14.9501 22.3999 15.1142 22.43 15.2853 22.43H20.9995C21.7885 22.43 22.4281 21.7904 22.4281 21.0015V15.2873C22.4281 15.1161 22.398 14.952 22.3428 14.7999C22.8917 14.9992 23.2839 15.5254 23.2839 16.1432V21.8573C23.2839 22.6463 22.6443 23.2859 21.8554 23.2859H16.1412C15.5234 23.2859 14.9972 22.8937 14.798 22.3447Z" fill="#47D7AF"/>
<path d="M5.71253 1.85547H2.85547C2.30318 1.85547 1.85547 2.30318 1.85547 2.85547V5.28397" stroke="white" stroke-linecap="round" stroke-linejoin="round"/>
<path d="M5.71253 15.5703H2.85547C2.30318 15.5703 1.85547 16.018 1.85547 16.5703V18.9988" stroke="white" stroke-linecap="round" stroke-linejoin="round"/>
<path d="M19.4274 1.85547H16.5703C16.018 1.85547 15.5703 2.30318 15.5703 2.85547V5.28397" stroke="white" stroke-linecap="round" stroke-linejoin="round"/>
<path d="M19.4274 15.5703H16.5703C16.018 15.5703 15.5703 16.018 15.5703 16.5703V18.9988" stroke="white" stroke-linecap="round" stroke-linejoin="round"/>
</svg>
