<svg width="50" height="50" viewBox="0 0 50 50" fill="none" xmlns="http://www.w3.org/2000/svg">
<path d="M49.9433 22.7827C49.8981 21.5787 49.734 20.3822 49.4533 19.2105C49.0514 17.5004 48.581 15.8099 48.0812 14.1243C47.8215 13.2766 47.5912 12.424 47.3021 11.5763C46.9208 10.2531 46.3497 8.99207 45.6067 7.83264C44.9256 6.18622 43.5879 5.09842 42.2257 4.0988C41.2457 3.3785 40.0256 3.1188 38.8741 2.72189C38.2616 2.51609 37.6196 2.38379 37.0218 2.13878C35.848 1.65414 34.6432 1.24818 33.4154 0.923581V0.923581C31.8445 0.442926 30.212 0.193668 28.5692 0.183669C27.5451 0.149369 26.5161 -0.0809459 25.492 0.110156C24.719 0.247057 23.9309 0.276733 23.1498 0.198353C22.8803 0.173853 22.6108 0.198353 22.3364 0.198353C21.7388 0.0864171 21.1313 0.0355228 20.5234 0.0464531C19.4424 0.0523482 18.3627 0.11944 17.2893 0.247372C15.8434 0.376318 14.4442 0.824857 13.1929 1.56058C11.4245 2.50752 9.75933 3.63569 8.22421 4.92691C7.21756 5.77412 6.36254 6.78656 5.6958 7.92084C4.40839 9.67999 3.24273 11.5251 2.20697 13.4432C2.05507 13.747 1.94235 14.0655 1.81984 14.3791C1.21376 15.8964 0.783028 17.4779 0.536033 19.0929C0.409657 20.0039 0.344196 20.9223 0.340049 21.8419C0.288099 22.1084 0.260228 22.3789 0.256756 22.6504C0.202856 23.7088 0.158748 24.7623 0.0656473 25.8158C-0.0429987 27.094 -0.0167333 28.3799 0.144035 29.6526C0.295201 31.0239 0.624652 32.3698 1.12405 33.6559C1.50135 34.582 1.80515 35.5424 2.10406 36.4979C2.71126 38.5268 3.95938 40.3045 5.6615 41.5646C6.0829 41.8831 6.53859 42.1575 6.9649 42.4662C8.74852 43.7696 10.3949 45.2543 12.3109 46.3862C13.9769 47.3663 15.6331 48.3463 17.549 48.7383C18.8475 49.0127 20.1706 49.1401 21.4691 49.3606C23.4291 49.6938 25.3891 49.8506 27.3197 49.9829C28.6378 50.0809 29.9021 49.7526 31.181 49.5321C33.2699 49.1203 35.3109 48.4947 37.2717 47.6651C38.6152 47.2242 39.8612 46.5288 40.9419 45.6169C41.5299 45.0681 42.1179 44.5242 42.75 44.0391C45.0334 42.2947 46.5426 39.9672 47.7823 37.4387C48.2622 36.3312 48.6061 35.1696 48.8064 33.9793C49.0547 32.8327 49.267 31.6779 49.4434 30.515C49.5666 29.6163 49.6435 28.7118 49.6738 27.8053C49.7767 26.1147 49.9825 24.4536 49.9433 22.7827Z" fill="#FFD561"/>
<path d="M13.618 13.8638C13.5121 13.8901 13.4037 13.9049 13.2946 13.9079C12.2215 13.805 11.3738 14.3097 10.5359 14.8879C8.96783 15.9806 7.24791 16.8479 5.6946 17.9553C4.25888 18.9843 2.85746 20.0525 1.43155 21.0913C1.08364 21.3461 0.711254 21.5813 0.34375 21.8018C0.347897 20.8822 0.413358 19.9639 0.539734 19.0529C0.786729 17.4379 1.21746 15.8563 1.82355 14.339C1.94605 14.0254 2.05877 13.7069 2.21067 13.4031C3.24644 11.485 4.4121 9.63993 5.6995 7.88078C6.20914 7.75552 6.73304 7.69787 7.25772 7.70929C7.97802 7.67499 8.69341 7.70929 9.41372 7.70929C9.74015 7.71451 10.0602 7.61867 10.3301 7.43489C13.177 5.63167 16.0435 3.85294 18.9051 2.06932C19.8852 1.45192 20.924 0.903129 21.9285 0.310223C22.0547 0.234717 22.1945 0.184746 22.3401 0.163197C22.6145 0.163197 22.884 0.163197 23.1535 0.163197C23.9346 0.241577 24.7227 0.211901 25.4957 0.0749999C26.5198 -0.116102 27.5488 0.114212 28.5729 0.148513C30.2157 0.158512 31.8482 0.40777 33.4191 0.888425C33.4191 1.10403 33.2182 1.15792 33.0761 1.25102C29.9597 3.21104 26.5933 4.72026 23.4769 6.67538C23.2711 6.80279 23.0653 6.92529 22.7958 7.10659C23.4475 7.10659 24.0159 7.10659 24.5794 7.10659C25.7456 7.10659 26.902 7.30749 28.0682 7.32219C29.2344 7.33689 30.3124 7.4594 31.4346 7.5084C32.248 7.5378 33.0614 7.5084 33.8846 7.5084C37.0745 7.4545 40.2547 7.62597 43.4495 7.60147C44.0424 7.60147 44.6353 7.69459 45.2331 7.67989C45.3701 7.67545 45.5052 7.71306 45.6202 7.78768C46.3632 8.94711 46.9343 10.2081 47.3156 11.5313C47.5802 12.379 47.835 13.2316 48.0947 14.0794C48.0947 14.2607 47.9967 14.2851 47.8301 14.2802C45.4781 14.2018 43.1245 14.1284 40.7692 14.0598C38.8386 14.0059 36.903 13.9667 34.9724 13.9225C34.7911 13.9225 34.747 13.7903 34.6833 13.6825C34.4012 13.2988 34.1995 12.8622 34.0904 12.3986C34.0904 12.3006 34.0463 12.1977 33.9434 12.1781C33.585 12.0997 33.2139 12.0997 32.8556 12.1781C32.6645 12.2173 32.7037 12.4133 32.738 12.5604C32.8439 12.8964 32.9956 13.2163 33.1888 13.511C33.2623 13.6384 33.4191 13.7559 33.3113 13.9421C33.1202 13.9421 32.9291 13.9421 32.7429 13.9421C30.0675 14.0009 27.4018 13.849 24.7411 13.6726C21.8354 13.4815 18.9394 13.6236 16.0386 13.6726C15.8524 13.6726 15.6662 13.7118 15.4751 13.7314C15.3967 13.555 15.5339 13.4571 15.627 13.3493C15.872 13.065 16.068 12.7417 16.3424 12.4672C16.0377 12.3188 15.6901 12.2842 15.3622 12.3695C15.0342 12.4549 14.7475 12.6546 14.5539 12.9327C14.3783 13.1728 14.1902 13.4034 13.9904 13.6237C13.8826 13.7707 13.7895 13.8981 13.618 13.8638Z" fill="white"/>
<path d="M24.62 22.3178C25.2033 22.3055 25.7855 22.3747 26.3497 22.5236C28.0255 23.0136 28.8732 24.2827 29.3632 25.8654C29.5738 26.6919 29.7164 27.5343 29.7895 28.3841C29.7895 28.5605 29.7307 28.6046 29.5984 28.6193C29.2097 28.6707 28.816 28.6707 28.4273 28.6193C28.099 28.5703 28.1333 28.2714 28.1235 28.0362C28.1011 26.9344 27.8385 25.8508 27.3542 24.8609C27.1626 24.4122 26.8818 24.0071 26.5289 23.6701C26.176 23.3332 25.7582 23.0715 25.3011 22.9009C24.9188 22.7638 24.512 22.7083 24.1069 22.7378C23.7018 22.7673 23.3075 22.8813 22.9491 23.0724C22.1334 23.4498 21.4082 23.9979 20.8224 24.6796C20.3324 25.3215 19.7444 25.0716 19.1809 25.0765C18.9408 25.0765 18.9016 24.8707 19.078 24.709C20.3128 23.582 21.528 22.4256 23.3656 22.4109C23.7576 22.3962 24.179 22.3472 24.62 22.3178Z" fill="#292929"/>
<path d="M15.2269 18.1693C15.2269 17.0031 15.0603 16.9639 16.0795 16.959C16.6142 16.9801 17.1498 16.9621 17.6818 16.9051C18.518 16.8349 19.36 16.8877 20.1809 17.0619C20.2594 17.0672 20.3361 17.0886 20.4061 17.1249C20.476 17.1611 20.5377 17.2114 20.5874 17.2725C20.637 17.3337 20.6736 17.4044 20.6947 17.4803C20.7158 17.5562 20.721 17.6356 20.7101 17.7136C20.729 18.0784 20.6566 18.4422 20.4994 18.772C20.3702 19.0984 20.2797 19.4388 20.2298 19.7863C20.2004 19.8941 20.176 19.997 20.1466 20.0999C19.8427 21.0799 19.4459 21.3249 18.4462 21.2416C17.8533 21.1926 17.2604 21.1338 16.6675 21.124C16.5182 21.1357 16.3691 21.0986 16.2427 21.0181C16.1163 20.9377 16.0195 20.8183 15.9668 20.6781C15.5891 19.8862 15.3393 19.0394 15.2269 18.1693V18.1693Z" fill="white"/>
<path d="M31.1309 20.8721C30.5176 20.8573 29.9057 20.8066 29.2983 20.7202C28.9606 20.6488 28.6545 20.4716 28.4245 20.2142C28.1945 19.9569 28.0526 19.6329 28.0194 19.2894C27.9376 18.6017 28.0285 17.9044 28.284 17.2607C28.333 17.1627 28.3379 17.0353 28.4457 16.9912C29.1709 16.7217 29.8814 16.3885 30.7046 16.5649C31.3465 16.7021 32.0031 16.7854 32.6646 16.9667C32.797 17.0059 32.9783 17.0452 32.9734 17.1873C32.9734 17.7459 33.3066 18.2261 33.2772 18.8043C33.2763 19.1894 33.178 19.568 32.9912 19.9047C32.8043 20.2415 32.5352 20.5254 32.2089 20.73C31.8684 20.8713 31.4965 20.9203 31.1309 20.8721V20.8721Z" fill="white"/>
<path d="M18.0286 17.2073C19.3761 17.2073 19.4398 17.2465 19.3565 18.5695C19.3148 19.1222 19.2313 19.6709 19.1066 20.211C19.0925 20.3184 19.0402 20.4172 18.9592 20.4892C18.8782 20.5612 18.774 20.6016 18.6656 20.603C18.531 20.6227 18.395 20.6325 18.2589 20.6324C17.8179 20.6324 17.2299 20.8088 16.9849 20.4609C16.706 20.0209 16.555 19.5119 16.5488 18.9909C16.5488 18.7312 16.5488 18.4764 16.5488 18.2167C16.5488 17.5258 16.8085 17.2367 17.4994 17.2367C17.6758 17.2024 17.8522 17.2073 18.0286 17.2073Z" fill="#292929"/>
<path d="M29.2639 18.6432V17.9523C29.2639 17.3153 29.2639 17.3055 29.8715 17.1634C30.3356 17.0786 30.8101 17.067 31.2778 17.1291C31.5738 17.3776 31.8372 17.6624 32.0618 17.9768C32.0937 18.5583 32.0839 19.1412 32.0324 19.7213C32.019 19.8527 31.9643 19.9765 31.8763 20.075C31.7884 20.1736 31.6715 20.2418 31.5424 20.2701C30.9638 20.4637 30.3475 20.5174 29.7441 20.4269C29.4452 20.3926 29.2835 20.2652 29.2541 19.9369C29.2541 19.5008 29.2149 19.0695 29.1953 18.6383L29.2639 18.6432Z" fill="#292929"/>
<path d="M33.3016 13.985C33.0476 13.5726 32.8249 13.1419 32.6352 12.6963C32.4931 12.2063 32.5617 12.0887 33.0713 12.0789C33.2085 12.0789 33.3408 12.0789 33.478 12.0789C33.8553 12.0789 34.2277 11.9858 34.2473 12.6326C34.2473 13.1226 34.6736 13.5489 34.9627 13.9703C35.3812 14.7462 35.9711 15.4165 36.6875 15.9303C36.9423 16.1459 37.2265 16.3272 37.4911 16.5624C36.8296 16.6212 36.173 16.8515 35.5311 16.3713C34.6287 15.7412 33.869 14.9281 33.3016 13.985Z" fill="#292929"/>
<path d="M16.48 12.4477C16.333 12.1683 15.941 12.33 15.6568 12.2908C15.4159 12.2536 15.1693 12.2938 14.9527 12.4057C14.7361 12.5175 14.5605 12.6952 14.4514 12.9132C14.2333 13.2861 13.9513 13.6179 13.6183 13.8932C13.2231 14.4589 12.7459 14.9626 12.2022 15.3877C12.0405 15.5004 11.7514 15.5935 11.7955 15.7895C11.8396 15.9855 12.1434 15.9022 12.3296 15.9316C12.6709 16.0237 13.0343 15.9853 13.3488 15.8238C13.8904 15.4638 14.3702 15.0187 14.7699 14.5057C14.9689 14.2331 15.201 13.9862 15.4608 13.7707C15.6814 13.5193 15.8813 13.2506 16.0586 12.9671C16.1811 12.7515 16.5829 12.6388 16.48 12.4477Z" fill="#292929"/>
</svg>
