<svg width="50" height="50" viewBox="0 0 50 50" fill="none" xmlns="http://www.w3.org/2000/svg">
<path d="M49.9568 23.0037C49.9568 25.1766 49.893 27.3494 49.7116 29.5174C49.6146 30.6392 49.3671 31.7429 48.9758 32.7987C48.3417 34.4935 47.5708 36.1338 46.6705 37.7036C45.9937 38.8758 45.1991 39.9941 44.5026 41.1369C44.0759 41.8285 43.762 42.6084 43.2813 43.2509C41.9812 44.9637 40.2103 46.2607 38.1852 46.9835C37.3036 47.3472 36.4439 47.7616 35.6101 48.2244C34.33 48.916 32.9174 49.1416 31.5342 49.4703C30.2209 49.6989 28.8893 49.8057 27.5564 49.7891C25.9427 49.8578 24.3241 49.9657 22.7055 50C21.4155 50.0007 20.1288 49.8708 18.865 49.6125C16.9124 49.2459 15.027 48.5844 13.2735 47.6506C11.8658 46.9099 10.4434 46.1791 9.06019 45.3993C7.2405 44.3643 5.88675 42.8144 4.57716 41.2203C3.7566 40.2249 3.00756 39.1726 2.33564 38.0714C1.5901 36.855 1.35468 35.5013 1.06039 34.1475C0.569907 31.7785 0.741567 29.3653 0.314846 26.9865C-0.264825 23.3462 -0.0421774 19.6233 0.967198 16.0781C1.23206 15.0971 1.40864 14.0671 1.64407 13.0616C1.83354 12.0018 2.13271 10.9646 2.53676 9.96665C2.60168 9.8174 2.69307 9.68114 2.80652 9.56445C3.33624 9.04454 3.55695 8.32352 4.05725 7.76927C4.929 6.88958 5.90016 6.1143 6.95112 5.45909C8.0631 4.74696 9.24675 4.1535 10.4826 3.68844C12.523 2.82028 14.5929 2.0208 16.6774 1.26545C18.6097 0.564175 20.6452 0.189552 22.7006 0.156955C24.1426 0.156955 25.5846 0.0392388 27.0266 0C28.521 0.00164009 30.0137 0.101588 31.495 0.299196C32.4831 0.388552 33.4656 0.532648 34.4379 0.730821C35.8259 1.03002 37.057 1.71179 38.3274 2.30528C40.0392 3.10477 41.3243 4.43889 42.7418 5.61114C45.2187 7.64666 46.6657 10.3198 47.9115 13.1744C48.6118 14.8821 49.1999 16.6335 49.6723 18.4177C49.9519 19.3987 49.8636 20.3796 49.9421 21.3312C49.996 21.8854 49.9568 22.4446 49.9568 23.0037Z" fill="#FFD561"/>
<path d="M24.2359 23.9939C21.8671 23.8193 19.5452 23.2438 17.3691 22.2919C16.8399 22.0381 16.3803 21.6593 16.0301 21.1884C15.308 20.3331 14.8437 19.2905 14.691 18.1817C14.6273 17.6569 14.6224 17.6569 15.1815 17.5882C15.261 17.5736 15.3412 17.5637 15.4219 17.5588C16.1919 17.5588 16.2116 17.446 16.3391 18.2945C16.555 19.6659 17.2845 20.9039 18.3795 21.7573C18.5101 21.8551 18.6517 21.9374 18.8013 22.0026C20.6353 22.826 22.5893 23.3509 24.589 23.5574C26.2377 23.7284 27.8998 23.4021 29.3614 22.6206C30.4718 22.0012 31.4003 21.1015 32.0542 20.0112C32.6142 19.1444 33.0578 18.2077 33.3736 17.2252C33.3909 17.1383 33.4381 17.0602 33.5072 17.0046C33.5762 16.949 33.6627 16.9194 33.7513 16.9211L34.6881 16.8672C34.9726 16.8672 35.0461 16.9653 34.9529 17.24C34.3571 19.1507 33.2291 20.8521 31.7011 22.1448C30.713 22.8716 29.578 23.3738 28.3756 23.6163C27.0172 23.9167 25.6262 24.0436 24.2359 23.9939V23.9939Z" fill="#292929"/>
<path d="M6.33789 15.3065C6.06322 12.4421 10.5953 13.1336 11.4929 14.9533C11.9834 15.9343 11.5517 17.185 10.6247 17.8963C10.0328 18.2925 9.30901 18.4405 8.60907 18.3084C7.90914 18.1763 7.28906 17.7747 6.88232 17.19C6.52426 16.6112 6.18093 16.0324 6.33789 15.3065Z" fill="#D6674C"/>
<path d="M42.8794 17.4265C42.6391 18.5105 42.232 19.5111 41.2608 20.1634C40.4908 20.6539 39.7256 20.3105 38.9654 20.0702C38.9292 20.0579 38.8947 20.0415 38.8624 20.0212C37.4645 19.2854 37.4301 18.8146 37.8372 17.4216C37.9735 16.8807 38.2795 16.3976 38.7103 16.0433C38.9864 15.7827 39.3219 15.5933 39.6877 15.4916C40.0535 15.3899 40.4386 15.3789 40.8096 15.4597C41.185 15.5248 41.5437 15.6642 41.8646 15.8697C42.1855 16.0752 42.4621 16.3427 42.6783 16.6564C42.8343 16.8813 42.9055 17.1541 42.8794 17.4265V17.4265Z" fill="#D6674C"/>
<path d="M32.2742 9.47497C32.8591 9.47885 33.4271 9.6721 33.8931 10.0258C34.3591 10.3794 34.6979 10.8745 34.859 11.4369C35.1074 12.2822 35.3104 13.1401 35.4672 14.007C35.5457 14.3308 35.3985 14.4632 35.0944 14.4975C34.9571 14.4975 34.8247 14.5368 34.6873 14.5368C34.4491 14.5813 34.2046 14.5813 33.9663 14.5368C33.6966 14.4289 33.9369 14.1395 33.8682 13.9286C33.5936 13.0506 33.5347 12.1089 33.157 11.2603C32.9047 10.7288 32.4887 10.2922 31.9701 10.0145C31.7346 9.88207 31.5777 10.0145 31.3962 10.1469C30.543 10.9548 29.9114 11.9681 29.5618 13.0898C29.3901 13.546 29.2282 14.0021 29.0369 14.4534C29.0124 14.5122 28.983 14.6054 28.934 14.6202C28.4771 14.7457 27.9981 14.7692 27.5312 14.6888C27.4086 14.6888 27.3791 14.5368 27.4429 14.424C27.8647 13.6441 28.0462 12.7661 28.4238 11.9715C28.7916 11.2411 29.2904 10.5844 29.8953 10.0341C30.0932 9.84634 30.3395 9.71727 30.6065 9.66135C31.151 9.52216 31.7123 9.45943 32.2742 9.47497V9.47497Z" fill="#292929"/>
<path d="M21.3074 14.8175C20.7678 14.8175 20.7678 14.8175 20.7531 14.2633C20.7674 13.296 20.5663 12.3377 20.1645 11.4577C19.9475 11.0615 19.6159 10.7401 19.213 10.5356C19.0388 10.4377 18.836 10.4032 18.6392 10.4381C18.4424 10.4729 18.2638 10.575 18.1339 10.7269C17.4092 11.3973 16.8673 12.2413 16.5595 13.1793C16.3486 13.8366 16.1573 14.4987 15.9709 15.1413C15.9597 15.194 15.9306 15.2414 15.8886 15.2753C15.8467 15.3092 15.7943 15.3277 15.7404 15.3276C15.3725 15.3276 15.0095 15.3767 14.6417 15.3816C14.3915 15.3816 14.2885 15.2394 14.3768 15.0039C14.7398 14.0573 14.9213 13.042 15.4216 12.1395C15.7595 11.5484 16.1938 11.0179 16.7066 10.5699C17.0225 10.3101 17.4082 10.1497 17.8151 10.1089C18.5632 9.96912 19.3297 9.95917 20.0812 10.0795C20.4712 10.146 20.8377 10.3111 21.1459 10.5592C21.4541 10.8073 21.6937 11.1301 21.842 11.497C22.2103 12.4336 22.3903 13.4336 22.3717 14.4399C22.3717 14.6508 22.2736 14.7293 22.0774 14.7391L21.3074 14.8175Z" fill="#292929"/>
</svg>
