<svg width="50" height="50" viewBox="0 0 50 50" fill="none" xmlns="http://www.w3.org/2000/svg">
<path d="M49.7199 22.2497C49.8328 23.2853 49.5972 24.213 49.8377 25.0523C50.1665 26.245 49.8377 27.4083 49.7886 28.5765C49.7395 29.6612 49.5186 30.7312 49.4008 31.816C49.2167 32.8597 48.9392 33.8848 48.5714 34.8788C48.2732 35.8431 47.771 36.732 47.0989 37.4851C46.4657 38.2311 45.754 38.9036 45.1944 39.7085C44.8186 40.3121 44.4089 40.8938 43.9673 41.451C43.0298 42.514 41.9963 43.4883 40.88 44.3616C39.3172 45.596 37.6596 46.7055 35.9226 47.6797C33.8391 48.9359 31.4801 49.6638 29.051 49.8C28.2264 49.8295 27.4067 49.9571 26.5968 49.9964C25.9033 50.0174 25.2102 49.9464 24.5353 49.7853C23.6876 49.6018 22.8205 49.5227 21.9535 49.5497C20.8172 49.5965 19.6841 49.399 18.6306 48.9705C17.9627 48.7818 17.2729 48.6812 16.5789 48.6711C14.8831 48.5431 13.2401 48.024 11.7786 47.1545C10.8804 46.5704 10.1098 45.8145 9.26555 45.1617C8.92687 44.9016 8.57835 44.6709 8.24949 44.3764C6.48741 42.9039 5.47629 40.9405 4.62715 38.9085C4.49125 38.6396 4.32668 38.3862 4.13632 38.1526C3.05177 36.6609 2.28193 34.9643 1.87359 33.1658C1.66667 32.3587 1.4193 31.5625 1.13243 30.7803C0.617195 29.1424 0.257299 27.4596 0.0575054 25.7542C-0.061578 24.4018 0.00448779 23.0394 0.25385 21.7048C0.325772 20.6719 0.516814 19.6507 0.823202 18.6617C1.85886 16.0652 2.90434 13.4883 4.70079 11.2992C5.8297 9.91014 6.88011 8.44746 8.10228 7.13694C9.14812 5.96571 10.3969 4.99298 11.7884 4.26557C12.2793 4.01034 12.7701 3.70602 13.2609 3.40661C13.8469 3.03416 14.481 2.74352 15.1457 2.54275C15.7732 2.35204 16.3749 2.08499 16.9373 1.7476C17.9335 1.17378 19.0489 0.837831 20.1963 0.765934C21.3193 0.629858 22.4313 0.414999 23.5242 0.122945C24.2284 -0.028476 24.9555 -0.0401457 25.6642 0.0885905C26.6201 0.268088 27.5959 0.317613 28.565 0.235834C30.4449 0.125728 32.3297 0.341606 34.136 0.873917C35.092 1.11949 36.0249 1.44796 36.9239 1.85558C38.0229 2.41881 39.0186 3.16394 39.8689 4.05942C40.0833 4.27797 40.3112 4.48289 40.5512 4.67296C41.4265 5.43166 42.2466 6.25179 43.0053 7.12712C44.3404 8.472 45.2877 10.1016 46.2694 11.6968C47.2091 13.1982 48.0661 14.7499 48.8364 16.3449C48.8911 16.4534 48.9355 16.5668 48.969 16.6836C49.4451 18.5586 49.9702 20.4238 49.7199 22.2497Z" fill="#FFD561"/>
<path d="M13.458 14.6378C13.4449 14.0527 13.5261 13.4694 13.6985 12.9101C13.7576 12.663 13.8908 12.4398 14.0803 12.2705C14.2698 12.1012 14.5065 11.9938 14.7587 11.9628C15.5928 11.8557 16.4397 11.9124 17.2521 12.1297C17.5343 12.162 17.8051 12.2598 18.0428 12.4151C18.2806 12.5705 18.4788 12.7792 18.6218 13.0246C18.7647 13.27 18.8484 13.5454 18.8663 13.8289C18.8842 14.1123 18.8356 14.396 18.7246 14.6575C18.53 15.2128 18.2338 15.7272 17.851 16.1741C17.6855 16.3463 17.4838 16.4796 17.2606 16.5645C17.0374 16.6494 16.7981 16.6837 16.5601 16.665C15.7479 16.7388 14.9308 16.593 14.1942 16.2428C13.9545 16.1619 13.7505 16.0001 13.6171 15.7852C13.4836 15.5702 13.4291 15.3156 13.4629 15.0648C13.4678 14.9667 13.458 14.844 13.458 14.6378Z" fill="white"/>
<path d="M34.829 12.8051C34.8367 12.5924 34.7841 12.3818 34.6773 12.1977C34.5705 12.0136 34.4138 11.8634 34.2253 11.7645C32.7184 11.043 29.2335 10.4 29.1403 13.026C29.1294 13.2389 29.1015 13.4507 29.0568 13.6591C28.8997 14.5377 29.0568 14.8862 29.8323 15.3427C30.4463 15.6674 31.1362 15.8216 31.83 15.7894C32.2314 15.825 32.6354 15.7658 33.0097 15.6166C33.384 15.4674 33.718 15.2323 33.9848 14.9304C34.2752 14.6616 34.5018 14.3313 34.6479 13.9635C34.794 13.5957 34.8558 13.1999 34.829 12.8051Z" fill="white"/>
<path d="M33.2367 15.9363C32.7999 16.059 32.5594 15.6762 32.255 15.5338C31.3151 15.1167 30.4574 14.5349 29.7223 13.8159C29.3444 13.4527 29.3542 13.2613 29.6683 12.8342C29.9657 12.4679 30.2941 12.1279 30.65 11.8182C31.053 11.4883 31.4038 11.0995 31.6906 10.6648C31.7365 10.5769 31.808 10.505 31.8957 10.4586C31.9833 10.4121 32.0829 10.3933 32.1814 10.4046C32.2452 10.4046 32.3139 10.4046 32.3777 10.4046C32.7178 10.3557 33.0646 10.3894 33.3888 10.5028C33.2177 10.7826 33.0292 11.0515 32.8244 11.3077C32.3581 11.7986 31.7986 12.2452 31.3519 12.7802C30.9053 13.3152 30.9053 13.4232 31.401 13.8355C32.1141 14.4784 32.9263 15.0022 33.8061 15.3866C33.9779 15.4553 34.2969 15.4896 34.2282 15.7301C34.1595 15.9706 33.919 15.8725 33.7374 15.8921C33.5558 15.9117 33.3938 15.9216 33.2367 15.9363Z" fill="#292929"/>
<path d="M12.6621 12.027C13.2205 11.8266 13.8325 11.8354 14.3849 12.0515C14.9067 12.3427 15.4442 12.6048 15.9949 12.8368C16.6649 13.1339 17.2934 13.5167 17.8649 13.9756C18.1545 14.1719 18.0662 14.4664 17.8944 14.6774C17.2956 15.4235 16.6771 16.1499 16.0636 16.8911C15.882 17.112 15.6219 17.058 15.3912 17.0531C15.1605 17.0482 14.6451 17.1905 14.5371 16.9402C14.4291 16.6899 14.7825 16.3855 15.0034 16.1794C15.4722 15.6855 15.9115 15.1643 16.3188 14.6185C16.5103 14.3928 16.471 14.2308 16.2305 14.0246C15.4157 13.3277 14.3948 13.043 13.472 12.5521C13.1862 12.4029 12.915 12.227 12.6621 12.027V12.027Z" fill="#292929"/>
<path d="M26.5713 29.0035C25.8651 29.0318 25.1601 28.9235 24.495 28.6845C24.1447 28.5615 23.8322 28.35 23.5879 28.0705C23.3437 27.7909 23.1759 27.4529 23.1011 27.0892C22.8637 25.9673 22.6998 24.8311 22.6102 23.6878C22.569 22.5419 22.5969 21.3945 22.6937 20.252C22.6937 20.0507 22.7624 19.928 22.9833 19.9182C24.4312 19.8593 25.8644 19.6384 27.3124 19.5746C28.2661 19.4825 29.2135 19.3333 30.1494 19.128C30.8733 18.9311 31.6235 18.8483 32.3729 18.8825C32.8637 18.9463 32.9668 18.9954 33.0846 19.4617C33.1386 19.6565 33.152 19.8603 33.1239 20.0605C32.9472 21.0716 33.0208 22.1073 32.795 23.1086C32.598 24.151 32.2681 25.1639 31.8133 26.1223C31.3654 26.9835 30.7377 27.7384 29.9727 28.336C29.4968 28.6511 28.947 28.8372 28.3775 28.8759C27.78 28.968 27.1759 29.0107 26.5713 29.0035Z" fill="#D6674C"/>
<path d="M33.126 18.023C32.4085 17.9747 31.6878 18.0026 30.9762 18.1064C30.1025 18.1997 29.2288 18.2586 28.3552 18.3715C26.7256 18.5923 25.096 18.8623 23.4468 19.0684C22.6566 19.1764 21.8565 19.2206 21.0712 19.3482C19.3238 19.628 17.6354 20.1875 15.888 20.4379C15.7948 20.4379 15.6769 20.4771 15.672 20.5753C15.6671 20.6735 15.7947 20.7373 15.9027 20.7422C16.3932 20.7962 16.8888 20.7813 17.3752 20.698C18.3863 20.4722 19.3974 20.2612 20.4036 20.0059C20.7718 19.9127 20.7571 20.0403 20.6736 20.3004C20.2757 21.7168 20.1393 23.1938 20.2711 24.659C20.3447 26.161 20.7374 27.5058 22.1265 28.3501C22.3444 28.5025 22.5541 28.6663 22.7547 28.8409C23.0118 29.0347 23.3215 29.146 23.6431 29.1599C24.3892 29.2188 25.1156 29.1943 25.9795 29.2041C26.9205 29.2277 27.8613 29.1536 28.787 28.9832C30.5491 28.5611 32.1346 27.874 32.8315 25.9892C33.0318 25.4371 33.1685 24.8641 33.2389 24.2811C33.4991 22.3177 33.3861 20.3544 33.4696 18.3911C33.5039 18.1309 33.3567 18.0426 33.126 18.023ZM31.9039 18.666C31.7959 20.7127 31.948 22.7693 31.6045 24.8112C31.2412 26.9905 29.8914 28.1636 27.8496 28.6593C26.7698 28.8394 25.6727 28.8921 24.5806 28.8164C24.487 28.814 24.3962 28.7832 24.3205 28.728C23.7216 28.3038 23.16 27.8293 22.6419 27.3095C22.0774 26.6616 21.9989 25.837 21.8958 25.0222C21.6865 23.3494 21.8354 21.6512 22.3326 20.0403C22.3495 19.9198 22.4076 19.8089 22.4972 19.7266C22.5867 19.6442 22.702 19.5955 22.8235 19.5887C23.8051 19.4906 24.7868 19.3433 25.7685 19.201C25.9501 19.1715 25.9648 19.2353 25.9697 19.3777C25.9697 20.4329 26.1857 21.4735 26.1955 22.5288C26.1955 22.8626 26.1955 23.1963 26.1955 23.5105C26.1955 23.8246 26.2838 23.9375 26.6029 23.9473C27.7514 23.9915 27.7465 24.0013 27.7514 22.8773C27.7457 21.8495 27.6736 20.8232 27.5354 19.8047C27.5183 19.6317 27.5183 19.4574 27.5354 19.2844C27.538 19.1781 27.582 19.0769 27.6582 19.0027C27.7343 18.9284 27.8364 18.8868 27.9428 18.8868C29.165 18.7249 30.397 18.5383 31.6241 18.4451C31.7762 18.45 31.9186 18.4107 31.8842 18.666H31.9039Z" fill="#292929"/>
</svg>
