<svg width="50" height="50" viewBox="0 0 50 50" fill="none" xmlns="http://www.w3.org/2000/svg">
<path d="M49.9827 23.0498C49.9434 25.2085 49.8943 27.3722 49.7373 29.5261C49.5803 31.6799 48.7561 33.4854 47.9122 35.3645C46.9898 37.4056 45.675 39.2111 44.5416 41.1294C44.3601 41.4336 44.1834 41.7378 44.0215 42.0518C42.9496 44.1623 41.1412 45.8066 38.9386 46.6735C37.8936 47.1053 36.8632 47.5763 35.8722 48.1062C34.6429 48.6896 33.3459 49.1181 32.0109 49.3818C30.7053 49.6528 29.3752 49.7876 28.0417 49.7841C26.2755 49.8577 24.5043 49.9657 22.7332 50C20.9241 49.9896 19.1237 49.7489 17.3755 49.2837C15.1431 48.7489 13.1953 47.6008 11.1936 46.5509C10.1358 46.0475 9.11724 45.4652 8.14671 44.8092C6.81501 43.7702 5.617 42.5705 4.57989 41.2374C3.90282 40.4131 3.29442 39.5496 2.69095 38.6763C1.83466 37.2999 1.27177 35.7616 1.03753 34.1576C0.759051 32.4677 0.619555 30.7579 0.620481 29.0452C0.629164 28.4188 0.532973 27.7952 0.335908 27.2005C0.051343 26.4302 0.159307 25.6157 0.0857122 24.8209C-0.184025 21.5867 0.184365 18.3311 1.16998 15.2389C1.32884 14.6213 1.45496 13.9957 1.54778 13.3647C1.70968 12.5012 2.00896 11.6721 2.21503 10.8233C2.4151 10.1471 2.75998 9.52266 3.22572 8.99324C3.52991 8.59583 3.71636 8.13954 4.06471 7.75195C4.93276 6.8684 5.9067 6.09553 6.96434 5.4509C8.31848 4.51379 9.86886 3.979 11.38 3.32646C13.1217 2.58561 14.8978 1.92327 16.6738 1.27564C18.5927 0.571459 20.6159 0.19336 22.6596 0.157005C24.1314 0.157005 25.5738 0.0392503 27.031 0C28.5274 0.000152494 30.0221 0.0984925 31.5056 0.29438C32.6678 0.360443 33.8194 0.55293 34.94 0.868423C37.3931 1.70249 39.7236 2.77697 41.6321 4.59229C42.3975 5.32824 43.1482 6.06418 43.9577 6.77069C45.0389 7.7708 45.9169 8.97025 46.5433 10.3032C47.9148 12.8573 48.9692 15.5693 49.6834 18.379C49.8643 19.4094 49.9578 20.4532 49.9631 21.4994C50.017 22.0292 49.9827 22.5591 49.9827 23.0498Z" fill="#99C458"/>
<path d="M29.8657 14.5766C29.9604 14.7549 30.0887 14.9131 30.2435 15.0427C30.7811 15.5647 31.4405 15.9441 32.1619 16.1466C32.5225 16.2436 32.8996 16.2632 33.2683 16.204C33.637 16.1448 33.9889 16.0082 34.301 15.8032C34.6112 15.5905 34.8511 15.2903 34.99 14.9407C35.129 14.5912 35.1607 14.2083 35.0811 13.8407C34.9972 13.5501 34.8609 13.2774 34.6788 13.036C33.9625 12.0155 32.5397 11.0097 31.215 11.4169C30.1503 11.7653 29.4094 13.5708 29.8657 14.5766Z" fill="white"/>
<path d="M14.3381 16.1807C14.6444 16.442 14.9885 16.6554 15.3586 16.8136C15.5467 16.9342 15.7575 17.0149 15.978 17.0508C16.1984 17.0866 16.4239 17.0769 16.6405 17.0222C16.857 16.9675 17.0601 16.8689 17.2371 16.7326C17.4141 16.5963 17.5612 16.4252 17.6695 16.2298C17.974 15.874 18.2527 15.4968 18.5035 15.1013C18.6481 14.9159 18.752 14.7021 18.8087 14.4739C18.8653 14.2457 18.8733 14.0082 18.8323 13.7767C18.7297 13.5193 18.5604 13.2941 18.3416 13.1241C17.4241 12.2999 15.3978 11.0046 14.2841 12.1429C13.3078 13.1683 13.3028 15.224 14.3381 16.1807Z" fill="white"/>
<path d="M21.1101 21.3614C21.1238 20.5575 20.9455 19.7619 20.59 19.0408C20.3201 18.5501 20.2417 18.5501 19.8393 18.9377C19.2925 19.4113 18.8612 20.0038 18.5784 20.6696C18.5784 20.7481 18.495 20.8316 18.5097 20.9002C18.6225 21.4203 18.2792 21.3909 17.9455 21.3909H17.2537C16.9299 21.3909 16.8122 21.2584 16.8907 20.9297C16.9864 20.5458 17.1528 20.1831 17.3813 19.8601C17.7859 19.3149 18.2428 18.8105 18.7453 18.3539C19.2015 17.9025 19.7804 17.9418 20.3496 17.9319C20.8157 17.9099 21.2751 18.0498 21.6498 18.3279C22.0245 18.6061 22.2915 19.0053 22.4053 19.4578C22.474 19.6491 22.5427 19.6737 22.7341 19.605C23.6043 19.3359 24.5265 19.2804 25.4227 19.4431C25.4916 19.4487 25.557 19.4762 25.6091 19.5216C25.9379 19.9533 26.1733 19.7325 26.5021 19.4774C27.0975 19.0652 27.7954 18.8258 28.5185 18.7856C28.7741 18.7528 29.0313 18.7348 29.2889 18.7317C29.5827 18.7095 29.877 18.7659 30.1418 18.8953C30.4065 19.0246 30.632 19.2222 30.7951 19.4676C31.2366 20.0515 31.8058 20.5225 31.8647 21.3271C31.8377 21.6115 31.8677 21.8983 31.9529 22.171C32.002 22.274 31.8794 22.3378 31.7861 22.3476C31.6506 22.3573 31.5145 22.3573 31.3789 22.3476C30.4468 22.3476 30.1769 22.4555 30.2407 21.3663C30.248 21.112 30.199 20.8591 30.0972 20.6259C29.9954 20.3926 29.8434 20.1847 29.6519 20.0171C29.5636 19.9337 29.4851 19.8356 29.3919 19.762C29.1809 19.605 29.0975 19.2321 28.7933 19.2714C28.4131 19.3207 28.0641 19.5074 27.8121 19.7963C27.3295 20.3591 27.0648 21.0764 27.0663 21.8177C27.0663 22.6174 27.0663 22.6812 26.2764 22.642C25.3884 22.5929 25.2951 22.799 25.4031 21.7981C25.4767 20.915 24.9566 20.4194 24.4218 19.9141C24.3596 19.8609 24.2804 19.8316 24.1986 19.8316C24.1167 19.8316 24.0375 19.8609 23.9753 19.9141C23.6921 20.0827 23.4677 20.3346 23.3326 20.6353C23.1541 20.9562 23.0141 21.2971 22.9156 21.6509C22.9088 21.7449 22.8812 21.8362 22.8349 21.9183C22.7886 22.0004 22.7247 22.0712 22.6478 22.1256C22.5708 22.18 22.4827 22.2167 22.3899 22.233C22.2971 22.2494 22.2019 22.2449 22.111 22.22H22.0275C20.8893 22.2053 21.1101 22.2544 21.1101 21.3614Z" fill="#292929"/>
<path d="M33.7775 16.4991H33.5715C33.2281 16.5237 32.9778 16.4991 32.8503 16.0674C32.7227 15.6356 32.4087 15.3903 32.2664 15.0027C32.1928 14.8065 32.0702 14.7574 31.9083 14.9291C31.8592 14.9782 31.7905 15.0076 31.7512 15.0616C31.2606 15.7436 30.5737 15.7338 29.8525 15.6798C29.7544 15.6798 29.6367 15.6798 29.5974 15.5817C29.5582 15.4835 29.6808 15.4001 29.7544 15.3363C30.2695 14.8948 30.7847 14.4483 31.3097 14.0215C31.506 13.8596 31.5108 13.732 31.3832 13.5308C31.0496 12.9666 30.7553 12.3828 30.4364 11.8185C30.2892 11.5487 30.3824 11.4604 30.6571 11.426C31.0078 11.3892 31.3613 11.3892 31.712 11.426C31.7782 11.4296 31.8417 11.4537 31.8936 11.495C31.9455 11.5364 31.9832 11.5929 32.0014 11.6566C32.1388 11.9657 32.3204 12.2552 32.4921 12.5594C32.5951 12.7851 32.7031 12.7704 32.8405 12.5986C33.1694 12.258 33.5423 11.9626 33.9493 11.7204C34.2486 11.4996 34.6312 11.6076 34.9796 11.6125C35.1709 11.6125 35.4702 11.5193 35.534 11.7302C35.5978 11.9412 35.2691 12.0197 35.1023 12.1375C34.4902 12.6336 33.907 13.1643 33.3556 13.7271C33.1741 13.8939 33.3213 14.0264 33.3949 14.1539C33.7678 14.8016 34.1357 15.4541 34.5282 16.087C34.7343 16.4157 34.5724 16.4844 34.2878 16.504C34.1259 16.504 33.964 16.504 33.7972 16.504L33.7775 16.4991Z" fill="#292929"/>
<path d="M18.1651 15.8483C17.385 16.069 17.0415 15.3184 16.5166 14.9406C16.2271 14.7296 16.1142 14.7296 15.9474 15.0142C15.8316 15.199 15.7037 15.376 15.5647 15.5441C15.4028 15.7354 15.3292 16.0347 15.0447 16.0887C14.604 16.1745 14.1509 16.1745 13.7102 16.0887C13.5139 16.0494 13.6022 15.9415 13.6856 15.8286C14.1174 15.2693 14.5246 14.6904 14.9613 14.136C15.1575 13.8857 15.1722 13.6846 14.8975 13.5031C14.3274 13.1108 13.8025 12.6567 13.3324 12.1489C13.2588 12.0753 13.1067 12.041 13.1656 11.9085C13.2245 11.776 13.3422 11.7957 13.4501 11.7859C14.2008 11.6975 14.8877 11.7858 15.3489 12.4825C15.5255 12.7573 15.6972 12.8211 15.8787 12.4482C16.042 12.1665 16.2239 11.8961 16.4233 11.6387C16.4586 11.5803 16.5094 11.5329 16.5701 11.5017C16.6307 11.4705 16.6988 11.4568 16.7668 11.462H17.6254C17.7628 11.462 17.9198 11.462 17.9983 11.5798C18.0768 11.6975 17.9296 11.8594 17.8412 11.9625C17.4995 12.4369 17.2069 12.9449 16.968 13.4785C16.9184 13.5587 16.9025 13.6552 16.9236 13.747C16.9447 13.8389 17.0012 13.9187 17.0808 13.9691C17.6696 14.4598 18.2436 14.9504 18.8176 15.441C18.901 15.5195 19.058 15.5882 19.004 15.7207C18.9501 15.8532 18.8029 15.8335 18.6753 15.8286L18.1651 15.8483Z" fill="#292929"/>
<path d="M38.6785 11.9386C38.2565 12.0417 37.9866 11.8552 37.7708 11.3646C37.4862 10.7121 36.9956 10.1626 36.7012 9.50021C36.5589 9.1813 36.6276 9.09299 36.9514 9.07337C38.0799 9.00468 38.0848 8.99486 38.5852 10.0154C38.806 10.4717 39.1691 10.8298 39.38 11.291C39.6499 11.8896 39.6351 11.9239 38.9973 11.9386H38.6785Z" fill="#292929"/>
<path d="M9.92343 10.6226H9.52606C9.38377 10.6226 9.18751 10.6667 9.14335 10.4803C9.09919 10.2938 9.28565 10.235 9.4034 10.1516C10.0363 9.70999 10.6839 9.28805 11.2923 8.80723C11.8251 8.61837 12.4015 8.58937 12.9506 8.72382C13.0488 8.7827 13.1567 8.86611 12.9801 8.94952C12.269 9.33554 11.5955 9.78725 10.9685 10.2987C10.8251 10.4204 10.6587 10.5119 10.4791 10.5675C10.2995 10.6232 10.1105 10.6419 9.92343 10.6226Z" fill="#292929"/>
</svg>
