<svg width="51" height="50" viewBox="0 0 51 50" fill="none" xmlns="http://www.w3.org/2000/svg">
<path d="M27.5406 50C25.4982 49.9116 23.441 50 21.4035 49.6809C20.1463 49.459 18.9144 49.112 17.7262 48.6449C16.4939 48.1785 15.2713 47.7268 14.0144 47.2653C12.9223 46.8343 11.861 46.329 10.8379 45.7531C9.59688 45.1698 8.41896 44.4607 7.32257 43.6371C4.98112 41.782 3.16367 39.3486 2.04955 36.577C1.89042 36.136 1.69841 35.7077 1.47512 35.2955C0.681446 33.7408 0.235813 32.032 0.169161 30.2877C0.0464192 28.8737 -0.0125101 27.4498 0.0022189 26.0309C-0.00940609 23.2098 0.567497 20.4173 1.69606 17.8318C2.75656 15.4506 3.70411 13.0203 4.99535 10.752C5.60036 9.82836 6.30686 8.97531 7.10163 8.20881C8.04745 7.18231 9.08618 6.24547 10.2045 5.41029C11.1325 4.7082 12.0899 4.04048 13.0276 3.35313C13.4548 3.03891 13.8721 2.70996 14.2697 2.37119C15.3658 1.44489 16.6641 0.789037 18.06 0.456436C19.0494 0.228118 20.065 0.133985 21.0795 0.176581C21.9867 0.173434 22.893 0.120983 23.7945 0.0194673C25.2014 -0.0523862 26.6113 0.0748963 27.9825 0.397522C29.8727 0.73629 31.6009 1.60528 33.4077 2.21899C34.3045 2.52339 35.1948 2.85071 36.0785 3.20093C37.6833 3.87955 39.1946 4.76063 40.5758 5.82271C42.3826 7.13851 43.7033 8.91581 45.1124 10.6146C45.962 11.5537 46.7229 12.5695 47.3855 13.6487C48.0176 14.826 48.5276 16.0647 48.9075 17.3457C49.4647 18.9968 49.8384 20.7042 50.022 22.4371C50.1153 23.5565 49.8207 24.617 49.6489 25.702C49.3641 27.4891 48.667 29.1388 48.0631 30.8277C47.8918 31.2798 47.7876 31.7545 47.7538 32.2368C47.6463 32.991 47.4434 33.7284 47.1499 34.4314C46.3373 37.1656 45.0402 39.7315 43.3203 42.0071C42.6182 42.935 42.0094 43.912 41.3564 44.8645C40.8344 45.7102 40.2184 46.4941 39.5202 47.2015C39.3999 47.3239 39.2585 47.4237 39.1029 47.4961C38.4156 47.7808 37.9393 48.3896 37.252 48.7088C36.159 49.1649 35.0175 49.4943 33.8496 49.6907C32.0428 50.0736 30.2066 49.9804 28.3802 50H27.5406Z" fill="#D6674C"/>
<path d="M21.7663 25.3133H21.6436C20.858 25.3771 20.8138 25.058 21.1035 24.3756C21.548 23.3317 22.2845 22.4383 23.2245 21.8029C24.123 21.1744 25.1442 21.1597 26.1703 21.2432C27.4517 21.3463 28.2078 22.122 28.7626 23.207C28.8238 23.3558 28.9012 23.4974 28.9934 23.6293C29.3524 24.1819 29.545 24.8261 29.5482 25.4851C29.5151 25.9071 29.6038 26.3296 29.8035 26.7027C29.8869 26.8157 29.7298 26.8501 29.6464 26.855C29.2219 26.8967 28.7943 26.8967 28.3698 26.855C28.2882 26.8487 28.2123 26.8108 28.1582 26.7493C28.1041 26.6879 28.0761 26.6078 28.0802 26.526C28.0649 25.9113 27.9892 25.2995 27.8543 24.6996C27.5405 23.5369 26.8498 22.5112 25.8904 21.7833C25.4486 21.4641 25.0312 21.7341 24.6728 21.9796C23.707 22.6484 22.9605 23.5879 22.5273 24.68C22.5147 24.7184 22.5 24.7561 22.4831 24.7929C22.3898 24.9402 22.5617 25.1022 22.4831 25.2495C22.4769 25.2615 22.4678 25.2718 22.4567 25.2795C22.4455 25.2872 22.4327 25.292 22.4193 25.2937L21.7418 25.3477L21.7663 25.3133Z" fill="#292929"/>
<path d="M20.0147 19.8405C19.5908 19.845 19.1672 19.8154 18.748 19.7522C18.095 19.7129 17.7268 19.2612 17.3438 18.7997C17.2962 18.7282 17.2657 18.6468 17.2547 18.5616C17.2436 18.4765 17.2523 18.39 17.28 18.3087C17.4666 17.4102 17.6728 16.5118 17.8741 15.6182C17.8927 15.5253 17.9332 15.4381 17.9921 15.3639C18.0509 15.2896 18.1266 15.2304 18.2128 15.1911C19.4219 14.5692 20.7973 14.3474 22.1406 14.5577C22.4843 14.6306 22.7996 14.8011 23.0489 15.0487C23.1313 15.1099 23.1952 15.1928 23.2333 15.2881C23.2715 15.3835 23.2824 15.4876 23.2649 15.5888C22.931 16.7818 22.7739 18.0436 22.116 19.1188C21.9539 19.403 21.7079 19.6301 21.4117 19.7689C21.1155 19.9078 20.7836 19.9517 20.4615 19.8945C20.3191 19.87 20.1767 19.8504 20.0147 19.8405Z" fill="white"/>
<path d="M33.9192 16.6083V17.2907C33.9192 18.312 33.3203 18.8913 32.4463 19.2546C31.5546 19.6326 30.5823 19.7811 29.6184 19.6867C29.0586 19.6278 28.8181 19.5296 28.8181 18.9993C28.8181 17.7817 28.4695 16.5838 28.661 15.3563C28.66 15.2847 28.6748 15.2137 28.7042 15.1484C28.7337 15.083 28.777 15.0249 28.8313 14.9782C28.8856 14.9314 28.9494 14.897 29.0184 14.8775C29.0874 14.858 29.1598 14.8539 29.2305 14.8654C29.8442 14.8359 30.453 14.7475 31.0667 14.6788C31.6259 14.6072 32.193 14.6271 32.7458 14.7377C33.0763 14.7823 33.3787 14.9472 33.5952 15.2009C33.8117 15.4545 33.9271 15.7791 33.9192 16.1124C33.9192 16.2843 33.9192 16.461 33.9192 16.6329V16.6083Z" fill="white"/>
<path d="M23.0199 13.0478C22.9666 13.0529 22.9128 13.0459 22.8626 13.0271C22.8124 13.0084 22.7671 12.9786 22.7302 12.9398C21.7139 12.0266 20.457 11.5553 19.2492 10.9759C18.3655 10.5537 17.4474 10.2198 16.544 9.8565C16.4262 9.80741 16.2543 9.76814 16.2445 9.62085C16.2347 9.47356 16.4213 9.40482 16.544 9.34591C16.6667 9.28699 16.9122 9.1937 17.0988 9.12005C17.2421 9.05491 17.3999 9.02834 17.5567 9.04298C17.7134 9.05762 17.8636 9.11298 17.9924 9.20354C18.5373 9.54231 19.2099 9.59139 19.7844 9.9007C20.5257 10.3033 21.3064 10.6273 22.0821 10.9563C22.8486 11.3135 23.5622 11.7744 24.2031 12.3261C24.3504 12.4439 24.3356 12.5421 24.2031 12.6354C23.8444 12.8595 23.4401 13.0004 23.0199 13.0478Z" fill="#292929"/>
<path d="M32.4116 10.0938C32.8718 10.1861 33.3009 10.3939 33.6587 10.6976C33.8158 10.8253 33.7127 10.8744 33.5605 10.9235C32.0137 11.4426 30.5045 12.0676 29.0436 12.7941C28.8472 12.8874 28.6655 12.9954 28.4741 13.0985C28.4299 13.0985 28.3464 13.1525 28.3415 13.177C28.3415 13.7613 27.9389 13.4176 27.7376 13.3783C27.3783 13.2886 27.0431 13.121 26.7557 12.8874C26.5495 12.7401 26.5151 12.6321 26.7851 12.4946C28.5487 11.5918 30.3692 10.8046 32.2349 10.1379L32.4116 10.0938Z" fill="#292929"/>
<path d="M21.6345 15.5454C21.4853 15.4474 21.3186 15.3791 21.1435 15.3441C20.9913 15.2116 20.8244 15.3441 20.6526 15.3441C20.1159 15.2238 19.5592 15.2238 19.0226 15.3441H18.9539C18.7476 15.3981 18.7329 15.5798 18.6936 15.7418C18.5856 15.8204 18.458 15.894 18.4629 16.0462C18.4629 16.7237 18.2027 17.362 18.2174 18.0101C18.2174 18.8153 18.4285 18.992 19.16 19.0264C19.2681 19.0264 19.3711 19.0706 19.4792 19.0706C20.4611 19.0706 20.9521 19.0706 21.2957 18.231C21.5658 17.74 21.5216 17.2049 21.7033 16.709C21.8016 16.5902 21.8554 16.4409 21.8555 16.2868V16.2868C21.8674 16.2726 21.8758 16.2558 21.88 16.2377C21.9135 16.1769 21.9338 16.1097 21.9395 16.0405C21.9452 15.9714 21.9361 15.9018 21.9129 15.8363C21.8897 15.7709 21.8529 15.7112 21.8049 15.661C21.7569 15.6109 21.6988 15.5715 21.6345 15.5454V15.5454Z" fill="#292929"/>
<path d="M32.7052 15.6403C32.7494 15.1984 32.5727 15.0167 32.1504 15.0216H32.0768C32.0326 14.9038 31.9295 14.9431 31.8412 14.9333C31.7528 14.9235 31.7969 14.9087 31.7822 14.9333C31.3056 14.8399 30.8154 14.8399 30.3388 14.9333C30.163 14.9398 29.9957 15.0102 29.8683 15.1314C29.7408 15.2525 29.6619 15.416 29.6465 15.5912C29.4796 16.1009 29.4408 16.6438 29.5336 17.1721C29.5336 17.3003 29.5435 17.4283 29.5631 17.5551C29.5631 17.6483 29.5631 17.7416 29.5631 17.8349C29.5631 18.4191 29.5974 18.483 30.1669 18.5419C30.7617 18.6201 31.3642 18.6201 31.959 18.5419C32.1133 18.5335 32.2596 18.4708 32.372 18.3647C32.4844 18.2586 32.5555 18.1161 32.5727 17.9625C32.7518 17.7153 32.8495 17.4185 32.8525 17.1132C32.882 16.578 32.666 16.1165 32.7052 15.6403Z" fill="#292929"/>
</svg>
