<svg width="51" height="50" viewBox="0 0 51 50" fill="none" xmlns="http://www.w3.org/2000/svg">
<path d="M0.169453 26.6482C0.169453 25.1773 0.115519 23.6524 0.169453 22.157C0.232313 20.5938 0.39609 19.0363 0.659761 17.4942C0.902571 16.4553 1.24918 15.4435 1.69433 14.4739C2.78805 11.7342 4.2495 9.156 6.03845 6.81038C6.43792 6.34962 6.89241 5.93961 7.39171 5.58951C8.23504 4.91289 9.07837 4.23136 9.90699 3.53512C11.1463 2.59061 12.5131 1.82632 13.9667 1.26499C16.0794 0.398977 18.3472 -0.0248709 20.63 0.0196123C21.7185 0.0196123 22.807 -0.0245154 23.8955 0.0196123C25.1457 0.0686431 26.3764 0.279473 27.6169 0.392244C28.3867 0.460887 29.1516 0.573661 29.9214 0.65211C31.5119 0.834903 33.0647 1.26157 34.5253 1.9171C37.5022 3.15796 40.3975 4.58598 43.194 6.19259C44.7433 7.11927 46.229 8.21756 47.1998 9.75222C47.9922 10.8725 48.5294 12.1528 48.7737 13.5031C48.9894 15.1064 49.1757 16.7293 49.5239 18.3277C49.8943 19.9461 50.0509 21.606 49.9897 23.2651C49.9259 24.6625 49.6955 26.055 49.5631 27.4474C49.482 28.119 49.3173 28.7779 49.0728 29.4087C48.8458 30.2063 48.7271 31.0309 48.7197 31.8602C48.5529 33.8798 48.1244 35.8691 47.445 37.7782C46.9968 38.9126 46.3436 39.9547 45.518 40.8525C43.9491 42.7205 42.2967 44.5101 40.2129 45.834C39.7748 46.1054 39.3176 46.3446 38.8449 46.5498C36.9965 47.3883 35.1431 48.2267 33.2407 48.9474C31.655 49.4826 30.0072 49.8122 28.3376 49.928C26.4598 50.1389 24.6064 49.8398 22.753 49.629C21.4635 49.4868 20.174 49.3152 18.8796 49.2024C17.792 49.0909 16.7209 48.854 15.6877 48.4963C14.8396 48.2763 14.0177 47.9656 13.2362 47.5697C11.7947 46.7067 10.2943 45.9271 8.8234 45.1181C6.90591 44.0024 5.41781 42.2761 4.59695 40.215C4.05162 38.9937 3.43268 37.8067 2.74357 36.6603C2.20132 35.6345 1.72956 34.573 1.33151 33.4831C0.827214 32.2607 0.439754 30.9934 0.174361 29.6979C0.0123696 28.7098 -0.0369708 27.7064 0.0272747 26.7071L0.169453 26.6482Z" fill="#FFD561"/>
<path d="M25.2635 24.9508C24.2142 25.0103 23.1622 24.896 22.1501 24.6125C21.2831 24.3871 20.4924 23.9333 19.8603 23.2985C18.9352 22.4479 18.1943 21.4166 17.6834 20.2684C17.3979 19.4957 17.1653 18.7045 16.9871 17.9002C16.9871 17.8267 16.9528 17.7433 16.9332 17.6649C16.7567 16.9196 16.7567 16.9196 17.5412 16.9147C18.3257 16.9098 18.3649 16.9147 18.5218 17.7041C18.7167 18.9479 19.1441 20.1439 19.7819 21.2294C21.4048 23.6368 22.7679 24.6615 25.7735 24.6027C27.3768 24.5733 28.2691 23.6221 29.0929 22.4993C29.74 21.4745 30.2355 20.3614 30.5638 19.1946C30.6716 18.8759 30.7893 18.5621 30.9021 18.2434C30.9021 18.2042 30.956 18.1601 30.9462 18.1306C30.7501 17.4932 31.2404 17.6403 31.5444 17.6403C32.525 17.6403 32.7996 17.5374 32.3583 18.6553C31.8288 20.0036 31.4855 21.4402 30.6079 22.6366C29.8479 23.6662 29.0389 24.6615 27.666 24.843C26.8701 24.9517 26.066 24.9878 25.2635 24.9508Z" fill="#292929"/>
<path d="M33.7993 13.4877C33.7993 13.1542 33.7993 12.8159 33.7993 12.4776C33.7993 12.0314 33.7993 11.5853 33.7993 11.1391C33.7993 10.9969 33.7993 10.8302 33.6326 10.8106C33.1815 10.7419 32.8285 10.4085 32.3873 10.3595C31.1827 10.1875 29.9549 10.2863 28.7933 10.6488C28.6363 10.6786 28.4972 10.7686 28.4056 10.8996C28.314 11.0306 28.2771 11.1922 28.303 11.3499C28.3487 12.2119 28.5376 13.0603 28.8619 13.8603C28.993 14.158 29.2002 14.4159 29.4628 14.6078C29.7254 14.7998 30.0339 14.9191 30.3574 14.9537C31.1084 15.0594 31.8723 15.0295 32.6128 14.8654C33.309 14.6889 33.8337 14.3898 33.7993 13.4877Z" fill="white"/>
<path d="M20.87 11.1622C20.6617 10.8305 20.3845 10.5475 20.057 10.3326C19.7296 10.1177 19.3597 9.97587 18.9725 9.91678C18.1586 9.76968 17.3986 10.0541 16.6092 10.108C16.5621 10.1102 16.5159 10.1222 16.4737 10.1433C16.4315 10.1645 16.3941 10.1942 16.3641 10.2306C16.0535 10.6746 15.8305 11.1739 15.707 11.7015C15.7078 12.4018 15.7554 13.1012 15.8492 13.7951C15.868 13.9722 15.954 14.1354 16.0895 14.2511C16.5455 14.7414 17.178 14.7414 17.7565 14.8493C18.5928 14.9236 19.4315 14.7387 20.159 14.3197C20.4124 14.2274 20.6285 14.0548 20.7746 13.8282C20.9207 13.6016 20.9886 13.3334 20.9681 13.0646C20.9681 12.8488 20.9681 12.6331 20.9681 12.3193C20.9681 12.0055 21.1053 11.5397 20.87 11.1622Z" fill="white"/>
<path d="M32.564 11.9391C32.5641 11.7937 32.5238 11.6512 32.4477 11.5274C32.3715 11.4036 32.2624 11.3034 32.1325 11.238C31.8101 11.1627 31.4822 11.1135 31.1519 11.0909C30.8067 11.0664 30.4598 11.0928 30.1223 11.1693C29.8477 11.1693 29.7055 11.3066 29.7153 11.6057C29.7447 12.4 29.7644 13.1943 29.7791 13.9935C29.7757 14.0269 29.7792 14.0606 29.7894 14.0926C29.7996 14.1245 29.8162 14.1541 29.8383 14.1793C29.8603 14.2046 29.8874 14.2251 29.9176 14.2395C29.9479 14.2539 29.9809 14.262 30.0144 14.2632C30.4551 14.335 30.9023 14.358 31.3481 14.3318C31.5755 14.32 31.8001 14.2754 32.0149 14.1994C32.2796 14.1014 32.314 14.0376 32.3973 13.7777C32.5507 13.1777 32.607 12.5569 32.564 11.9391V11.9391Z" fill="#292929"/>
<path d="M19.5807 10.8993C19.8062 10.9827 19.8503 11.1739 19.8748 11.3896C19.9729 12.1104 19.8454 12.8606 20.071 13.5568C20.1396 13.7627 19.9337 13.9049 19.7523 13.9589C19.0511 14.2044 18.3043 14.2915 17.5655 14.2138C17.4004 14.1954 17.2483 14.1157 17.1393 13.9903C17.0303 13.865 16.9724 13.7032 16.9771 13.5372C16.9477 12.8361 16.9477 12.1349 16.9771 11.4338C16.9706 11.3045 17.0076 11.1767 17.0823 11.0709C17.157 10.9651 17.265 10.8875 17.389 10.8503C17.5504 10.8868 17.7179 10.8868 17.8793 10.8503C18.4348 10.7988 18.9944 10.8136 19.5464 10.8944L19.5807 10.8993Z" fill="#292929"/>
</svg>
